<svg xmlns="http://www.w3.org/2000/svg" viewBox="0 0 1254 1254" width="512" height="512" shape-rendering="geometricPrecision">
  <rect width="1254" height="1254" fill="#1D4354"/>
  <path d="M252 732Q252 710 253.5 691.5Q255 673 257.5 657Q260 641 261 639.5Q262 638 262.5 633Q263 628 267.5 611Q272 594 278.5 576Q285 558 294.5 539Q304 520 312.5 507Q321 494 327.5 486.5Q334 479 334 478Q334 477 336.5 475Q339 473 339 472Q339 471 347 463.5Q355 456 355.5 454.5Q356 453 359 451Q362 449 363 447Q364 445 367.5 443Q371 441 373 438.5Q375 436 376 436Q377 436 381 432Q385 428 386 428Q387 428 388 426.5Q389 425 399 418Q409 411 428.5 400.5Q448 390 466 383.5Q484 377 498 374Q512 371 513.5 370Q515 369 534.5 366.5Q554 364 576 364Q598 364 615 366Q632 368 645.5 371.5Q659 375 661 374.5Q663 374 669 354Q675 334 676.5 324Q678 314 678 303Q678 292 676 283.5Q674 275 671 269.5Q668 264 662 258.5Q656 253 655 253Q654 253 649 247.5Q644 242 641.5 237Q639 232 638 224Q637 216 639 207.5Q641 199 644.5 194Q648 189 651.5 186Q655 183 663.5 180Q672 177 683 177.5Q694 178 700 180.5Q706 183 707 184.5Q708 186 711 187.5Q714 189 720 195.5Q726 202 729 207.5Q732 213 734 218.5Q736 224 737.5 232.5Q739 241 739 256.5Q739 272 734.5 293Q730 314 722.5 332.5Q715 351 705.5 369Q696 387 707.5 391.5Q719 396 719.5 397Q720 398 726 400.5Q732 403 732.5 404Q733 405 736 406Q739 407 739.5 408Q740 409 750.5 415Q761 421 763 423.5Q765 426 766 426Q767 426 772.5 431Q778 436 779 436Q780 436 782.5 439Q785 442 786 442Q787 442 802 458Q817 474 818 476.5Q819 479 820.5 480Q822 481 831 494Q840 507 849 526Q858 545 859 545.5Q860 546 868 569.5Q876 593 880 610.5Q884 628 884.5 634.5Q885 641 893.5 648Q902 655 912 661Q922 667 928 669Q934 671 942.5 671Q951 671 953.5 670Q956 669 958.5 666Q961 663 961.5 656Q962 649 960 644Q958 639 952 631.5Q946 624 944 619Q942 614 941.5 608Q941 602 944 594.5Q947 587 950.5 584Q954 581 957.5 579.5Q961 578 970 578.5Q979 579 983.5 581.5Q988 584 991 587Q994 590 997.5 598Q1001 606 1001.5 615Q1002 624 999 637.5Q996 651 994 653.5Q992 656 992 657.5Q992 659 990.5 660Q989 661 988 664Q987 667 979.5 675Q972 683 961.5 689Q951 695 943 697.5Q935 700 922 700.5Q909 701 902 700Q895 699 894 698Q893 697 892 697.5Q891 698 891 725Q891 752 890 763Q889 774 885.5 796.5Q882 819 878.5 834.5Q875 850 870.5 865Q866 880 859.5 896Q853 912 844.5 929Q836 946 824 964Q812 982 805 989.5Q798 997 798 998Q798 999 794 1002.5Q790 1006 790 1007Q790 1008 780.5 1017.5Q771 1027 770 1027Q769 1027 763 1033Q757 1039 756 1039Q755 1039 753.5 1041Q752 1043 740.5 1051Q729 1059 721 1063Q713 1067 710 1069.5Q707 1072 692 1078.5Q677 1085 660.5 1089.5Q644 1094 643 1095Q642 1096 641 1095.5Q640 1095 639 1096Q638 1097 626.5 1099Q615 1101 596.5 1102.5Q578 1104 555 1103Q532 1102 516.5 1099.5Q501 1097 481.5 1091Q462 1085 446 1078Q430 1071 429.5 1070Q429 1069 423.5 1066.5Q418 1064 406.5 1056.5Q395 1049 386 1041Q377 1033 376 1033Q375 1033 372.5 1030Q370 1027 369 1027Q368 1027 355.5 1014Q343 1001 343 1000Q343 999 341.5 998.5Q340 998 340 997Q340 996 333.5 988.5Q327 981 325 977Q323 973 321.5 972Q320 971 313.5 961Q307 951 306 948Q305 945 304 944.5Q303 944 293.5 924.5Q284 905 277.5 886.5Q271 868 263.5 834.5Q256 801 254 777.5Q252 754 252 732ZM361 676.5Q359 699 359 714.5Q359 730 360 730Q361 730 376.5 718Q392 706 396 704Q400 702 412 691.5Q424 681 425 681Q426 681 428 678.5Q430 676 431 676Q432 676 434 673.5Q436 671 437 671Q438 671 451.5 658Q465 645 466 645Q467 645 491.5 620.5Q516 596 516 595Q516 594 526.5 583.5Q537 573 537 572Q537 571 540 568.5Q543 566 543 565Q543 564 545.5 562Q548 560 550.5 556Q553 552 558.5 546.5Q564 541 564 540Q564 539 566 537.5Q568 536 570.5 531.5Q573 527 580.5 518Q588 509 589 506.5Q590 504 591.5 503Q593 502 594 499.5Q595 497 596.5 496Q598 495 600 491Q602 487 603.5 486Q605 485 612.5 473.5Q620 462 628.5 445.5Q637 429 638 428.5Q639 428 643.5 418.5Q648 409 647.5 407Q647 405 637.5 401.5Q628 398 612 395Q596 392 578 392Q560 392 550.5 393.5Q541 395 532 397.5Q523 400 510 406Q497 412 496.5 413Q496 414 486 419.5Q476 425 463 436.5Q450 448 450 449Q450 450 442 458.5Q434 467 424 481.5Q414 496 405.5 512Q397 528 391.5 542Q386 556 382.5 569Q379 582 377.5 584.5Q376 587 372 604Q368 621 365.5 637.5Q363 654 361 676.5ZM380.5 738.5Q359 753 359.5 773Q360 793 363 817Q366 841 371 863Q376 885 377 885.5Q378 886 382 900.5Q386 915 391 927.5Q396 940 408.5 962.5Q421 985 429 994.5Q437 1004 437 1005Q437 1006 439 1007.5Q441 1009 441 1010Q441 1011 452 1022Q463 1033 464 1033Q465 1033 467 1035.5Q469 1038 477 1043.5Q485 1049 498.5 1056Q512 1063 523 1066.5Q534 1070 546.5 1072Q559 1074 575 1074Q591 1074 605 1071.5Q619 1069 626.5 1066.5Q634 1064 644 1059Q654 1054 664.5 1047Q675 1040 677 1037.5Q679 1035 680 1035Q681 1035 682.5 1032.5Q684 1030 685.5 1029.5Q687 1029 695 1020.5Q703 1012 716 993Q729 974 740.5 949Q752 924 762 889.5Q772 855 776.5 827Q781 799 782.5 778.5Q784 758 784 728.5Q784 699 780.5 664.5Q777 630 768.5 624.5Q760 619 760 618Q760 617 757.5 616Q755 615 752.5 612.5Q750 610 731 600Q712 590 706 588Q700 586 689.5 584.5Q679 583 668 584Q657 585 652 586.5Q647 588 640 592Q633 596 626 603.5Q619 611 615.5 619Q612 627 611.5 638Q611 649 612.5 654Q614 659 618.5 666Q623 673 627.5 677.5Q632 682 635 690.5Q638 699 637.5 705Q637 711 632 718.5Q627 726 621.5 728.5Q616 731 610 731.5Q604 732 599 731Q594 730 589 727Q584 724 580 719.5Q576 715 573 707.5Q570 700 569 686Q568 672 570.5 658Q573 644 575.5 637Q578 630 580 626Q582 622 583.5 621Q585 620 586.5 616Q588 612 599 599Q610 586 611 586Q612 586 614 583.5Q616 581 622.5 576.5Q629 572 645 565.5Q661 559 675 556.5Q689 554 701.5 554.5Q714 555 726 557.5Q738 560 751.5 564.5Q765 569 762.5 559Q760 549 753 530Q746 511 744.5 509.5Q743 508 743 506.5Q743 505 734.5 489.5Q726 474 721 468Q716 462 716 461Q716 460 714 458.5Q712 457 712 456Q712 455 710 453.5Q708 452 708 451Q708 450 699 441Q690 432 682.5 427Q675 422 670.5 430Q666 438 663 441.5Q660 445 659.5 447Q659 449 655 454Q651 459 650.5 461Q650 463 643.5 471Q637 479 633 486Q629 493 627.5 494Q626 495 618.5 506Q611 517 609 518.5Q607 520 605.5 523Q604 526 602 527.5Q600 529 600 530Q600 531 598 532.5Q596 534 596 535Q596 536 593.5 538Q591 540 591 541Q591 542 588.5 544Q586 546 586 547Q586 548 583.5 550Q581 552 578.5 556Q576 560 572.5 563Q569 566 569 567Q569 568 565 571.5Q561 575 561 576Q561 577 556 581.5Q551 586 548.5 590Q546 594 531 608.5Q516 623 516 624Q516 625 515 625Q514 625 513.5 626.5Q513 628 512 628Q511 628 499 640.5Q487 653 482.5 656Q478 659 469 668Q460 677 459 677Q458 677 446.5 687.5Q435 698 434 698Q433 698 426.5 704Q420 710 412.5 715Q405 720 403.5 722Q402 724 380.5 738.5Z" fill="#F3E8D8" fill-rule="evenodd"/>
</svg>
