<svg xmlns="http://www.w3.org/2000/svg" viewBox="0 0 1024 1024" width="512" height="512"><rect width="1024" height="1024" fill="#1D4354"/><path transform="translate(114.888,829.151) scale(0.9435,-0.9435)" fill="#F3E8D8" d="M314.6248779296875 -12Q251.31243896484375 -12 201.79373168945312 12.431243896484375Q152.2750244140625 36.86248779296875 119.550048828125 78.36248779296875Q86.8250732421875 119.86248779296875 74.89382934570312 171.86248779296875Q62.96258544921875 223.86248779296875 74.8250732421875 278Q86.8250732421875 333 120.03134155273438 375.0Q153.23760986328125 417 201.3250732421875 441.0Q249.41253662109375 465 302.89990234375 465Q328.76239013671875 465 353.349853515625 459.1562194824219Q377.93731689453125 453.31243896484375 397.5247802734375 439.349853515625L319.4752197265625 366.16278076171875Q306.78765869140625 408.51263427734375 286.8938293457031 422.0313415527344Q267 435.550048828125 249.449951171875 435.550048828125Q225.03741455078125 435.550048828125 207.43731689453125 418.050048828125Q189.83721923828125 400.550048828125 178.3746337890625 371.9812927246094Q166.91204833984375 343.41253662109375 161.36199951171875 310Q151.949462890625 248 164.2244873046875 198.51870727539062Q176.49951171875 149.03741455078125 204.11831665039062 114.349853515625Q231.73712158203125 79.66229248046875 269.9934387207031 61.180999755859375Q308.249755859375 42.69970703125 350.93731689453125 42.69970703125Q408.1749267578125 42.69970703125 456.8811950683594 74.26846313476562Q505.58746337890625 105.83721923828125 536.5187072753906 165.45602416992188Q567.449951171875 225.0748291015625 570.5874633789062 309L591.7623901367188 303Q584.6248779296875 199.58746337890625 546.6936340332031 129.15621948242188Q508.76239013671875 58.7249755859375 448.76239013671875 23.36248779296875Q388.76239013671875 -12 314.6248779296875 -12ZM124.48736572265625 191.68756103515625 111.1749267578125 205Q142.86248779296875 232.41253662109375 185.13751220703125 265.9812927246094Q227.41253662109375 299.550048828125 271.550048828125 336.41253662109375Q315.68756103515625 373.2750244140625 353.18756103515625 410.2750244140625Q390.68756103515625 447.2750244140625 414.1188049316406 482.050048828125Q437.550048828125 516.8250732421875 437.550048828125 545.7876586914062Q437.550048828125 566.5126342773438 429.10009765625 576.5813903808594Q420.650146484375 586.650146484375 410.2001953125 592.2876586914062Q399.750244140625 597.9251708984375 391.30029296875 607.3751220703125Q382.850341796875 616.8250732421875 382.850341796875 636.449951171875Q382.850341796875 658.0748291015625 395.9565124511719 671.1809997558594Q409.06268310546875 684.2871704101562 429.68756103515625 684.2871704101562Q459.1749267578125 684.2871704101562 473.1749267578125 661.0434875488281Q487.1749267578125 637.7998046875 487.1749267578125 603.0748291015625Q487.1749267578125 555.89990234375 465.1248779296875 512.4686584472656Q443.0748291015625 469.03741455078125 405.88726806640625 427.89990234375Q368.69970703125 386.76239013671875 321.4246826171875 347.1936340332031Q274.149658203125 307.6248779296875 223.49343872070312 269.03741455078125Q172.83721923828125 230.449951171875 124.48736572265625 191.68756103515625ZM388.8250732421875 214.16278076171875Q376.23760986328125 214.16278076171875 365.3564147949219 222.38775634765625Q354.4752197265625 230.61273193359375 354.4752197265625 251.9251708984375Q354.4752197265625 281.3751220703125 374.28765869140625 308.9812927246094Q394.10009765625 336.58746337890625 425.13751220703125 354.39990234375Q456.1749267578125 372.21234130859375 488.349853515625 372.21234130859375Q516.0748291015625 372.21234130859375 544.9373168945312 360.71234130859375Q573.7998046875 349.21234130859375 602.6622924804688 333.7810974121094Q631.5247802734375 318.349853515625 657.5935363769531 306.849853515625Q683.6622924804688 295.349853515625 705.6622924804688 295.349853515625Q718.7998046875 295.349853515625 727.1622924804688 300.4186096191406Q735.5247802734375 305.48736572265625 735.5247802734375 314.21234130859375Q735.5247802734375 323.349853515625 728.0060729980469 329.98736572265625Q720.4873657226562 336.6248779296875 712.89990234375 345.48736572265625Q705.3124389648438 354.349853515625 705.3124389648438 367.7998046875Q705.3124389648438 380.5247802734375 714.3311462402344 388.11224365234375Q723.349853515625 395.69970703125 739.5247802734375 395.69970703125Q752.9747314453125 395.69970703125 762.9246826171875 388.0434875488281Q772.8746337890625 380.38726806640625 772.8746337890625 358.0748291015625Q772.8746337890625 330.6248779296875 756.4934387207031 302.58746337890625Q740.1122436523438 274.550048828125 713.0748291015625 255.80636596679688Q686.0374145507812 237.06268310546875 654.8624877929688 237.06268310546875Q628.1375122070312 237.06268310546875 599.2750244140625 249.49392700195312Q570.4125366210938 261.9251708984375 540.9125366210938 278.3564147949219Q511.41253662109375 294.78765869140625 482.9812927246094 307.2189025878906Q454.550048828125 319.650146484375 429.550048828125 319.650146484375Q412.8250732421875 319.650146484375 404.8250732421875 313.5813903808594Q396.8250732421875 307.51263427734375 396.8250732421875 298.650146484375Q396.8250732421875 288.650146484375 402.91253662109375 280.150146484375Q409 271.650146484375 415.08746337890625 263.150146484375Q421.1749267578125 254.650146484375 421.1749267578125 243.9251708984375Q421.1749267578125 234.33770751953125 414.08746337890625 224.250244140625Q407 214.16278076171875 388.8250732421875 214.16278076171875Z"/></svg>