<svg xmlns="http://www.w3.org/2000/svg" viewBox="0 0 1254 1254" width="512" height="512">
  <rect width="1254" height="1254" fill="#1D4354"/>
  <g transform="translate(161.30,1023.73) scale(1.22071,-1.22071)">
    <path d="M377 -14Q311 -14 251.0 9.5Q191 33 145.0 76.5Q99 120 72.0 180.5Q45 241 45 315Q45 383 67.0 445.5Q89 508 132.0 557.0Q175 606 239.0 635.0Q303 664 386 664Q452 664 512.0 640.5Q572 617 618.0 573.5Q664 530 691.0 469.5Q718 409 718 335Q718 268 696.0 205.0Q674 142 631.0 93.0Q588 44 524.0 15.0Q460 -14 377 -14ZM392 26Q469 26 520.0 58.5Q571 91 596.5 149.5Q622 208 622 286Q622 355 606.0 416.0Q590 477 558.5 523.5Q527 570 480.0 596.0Q433 622 370 622Q295 622 244.0 590.0Q193 558 167.0 500.5Q141 443 141 365Q141 295 156.5 234.0Q172 173 203.5 126.0Q235 79 282.0 52.5Q329 26 392 26Z" fill="#F3E8D8"/>
  </g>
</svg>
