<svg xmlns="http://www.w3.org/2000/svg" viewBox="0 0 1254 1254" width="1254" height="1254"><rect width="1254" height="1254" fill="#1D4354"/><path transform="translate(569.7 589.5) scale(1.22) translate(-574 -616.0)" d="M 681.8 283.5 C 683.6 283.2 685.8 283.0 688.0 283.0 C 690.2 283.0 692.6 283.0 694.8 283.2 C 696.9 283.5 698.9 283.8 700.8 284.2 C 702.6 284.8 704.2 285.5 705.8 286.2 C 707.3 287.0 708.6 288.0 710.0 289.0 C 711.4 290.0 712.7 291.0 714.0 292.0 C 715.3 293.0 716.6 294.1 717.8 295.2 C 718.9 296.4 720.0 297.7 721.0 299.0 C 722.0 300.3 723.0 301.6 724.0 303.0 C 725.0 304.4 726.0 305.7 726.8 307.2 C 727.5 308.8 728.2 310.5 728.8 312.2 C 729.3 314.0 729.8 315.9 730.2 317.8 C 730.8 319.6 731.3 321.3 731.8 323.2 C 732.2 325.2 732.5 327.1 732.8 329.2 C 733.0 331.4 733.0 333.7 733.0 336.0 C 733.0 338.3 733.0 340.7 733.0 343.0 C 733.0 345.3 732.9 347.6 732.8 349.8 C 732.6 351.9 732.3 354.0 732.0 356.0 C 731.7 358.0 731.2 359.9 730.8 361.8 C 730.3 363.6 729.8 365.4 729.2 367.2 C 728.8 369.1 728.3 371.0 727.8 372.8 C 727.2 374.5 726.6 376.3 726.0 378.0 C 725.4 379.7 724.7 381.3 724.0 383.0 C 723.3 384.7 722.7 386.3 722.0 388.0 C 721.3 389.7 720.7 391.3 720.0 393.0 C 719.3 394.7 718.7 396.4 718.0 398.0 C 717.3 399.6 716.5 401.2 715.8 402.8 C 715.0 404.3 714.1 405.8 713.2 407.2 C 712.4 408.8 711.6 410.2 710.8 411.8 C 709.9 413.2 709.1 414.8 708.2 416.2 C 707.4 417.8 706.6 419.3 705.8 420.8 C 704.9 422.2 704.0 423.6 703.0 425.0 C 702.0 426.4 701.0 427.7 700.0 429.0 C 699.0 430.3 698.0 431.7 697.0 433.0 C 696.0 434.3 695.0 435.7 694.0 437.0 C 693.0 438.3 692.0 439.7 691.0 441.0 C 690.0 442.3 689.0 443.7 688.0 445.0 C 687.0 446.3 686.0 447.7 685.0 449.0 C 684.0 450.3 683.0 451.7 682.0 453.0 C 681.0 454.3 680.0 455.7 679.0 457.0 C 678.0 458.3 677.0 459.7 676.0 461.0 C 675.0 462.3 673.9 463.5 672.8 464.8 C 671.6 466.0 670.4 467.0 669.2 468.2 C 668.1 469.5 667.0 470.7 666.0 472.0 C 665.0 473.3 664.0 474.7 663.0 476.0 C 662.0 477.3 660.9 478.5 659.8 479.8 C 658.6 481.0 657.4 482.1 656.2 483.2 C 655.1 484.4 653.9 485.6 652.8 486.8 C 651.6 487.9 650.4 489.0 649.2 490.2 C 648.1 491.5 647.1 492.8 646.0 494.0 C 644.9 495.2 643.9 496.5 642.8 497.8 C 641.6 499.0 640.4 500.1 639.2 501.2 C 638.1 502.4 636.9 503.6 635.8 504.8 C 634.6 505.9 633.4 507.1 632.2 508.2 C 631.1 509.4 630.0 510.6 628.8 511.8 C 627.5 512.9 626.2 513.9 625.0 515.0 C 623.8 516.1 622.5 517.1 621.2 518.2 C 620.0 519.4 618.9 520.6 617.8 521.8 C 616.6 522.9 615.4 524.1 614.2 525.2 C 613.1 526.4 612.0 527.6 610.8 528.8 C 609.5 529.9 608.2 530.9 607.0 532.0 C 605.8 533.1 604.5 534.1 603.2 535.2 C 602.0 536.4 601.0 537.6 599.8 538.8 C 598.5 539.9 597.2 540.9 596.0 542.0 C 594.8 543.1 593.5 544.1 592.2 545.2 C 591.0 546.4 590.0 547.6 588.8 548.8 C 587.5 549.9 586.2 550.9 585.0 552.0 C 583.8 553.1 582.5 554.1 581.2 555.2 C 580.0 556.4 579.0 557.6 577.8 558.8 C 576.5 559.9 575.3 561.0 574.0 562.0 C 572.7 563.0 571.3 564.0 570.0 565.0 C 568.7 566.0 567.5 567.1 566.2 568.2 C 565.0 569.4 564.0 570.6 562.8 571.8 C 561.5 572.9 560.3 574.0 559.0 575.0 C 557.7 576.0 556.3 577.0 555.0 578.0 C 553.7 579.0 552.3 580.0 551.0 581.0 C 549.7 582.0 548.5 583.1 547.2 584.2 C 546.0 585.4 545.0 586.6 543.8 587.8 C 542.5 588.9 541.3 590.0 540.0 591.0 C 538.7 592.0 537.3 593.0 536.0 594.0 C 534.7 595.0 533.3 596.0 532.0 597.0 C 530.7 598.0 529.3 599.0 528.0 600.0 C 526.7 601.0 525.3 602.0 524.0 603.0 C 522.7 604.0 521.3 605.0 520.0 606.0 C 518.7 607.0 517.5 608.1 516.2 609.2 C 515.0 610.4 514.0 611.6 512.8 612.8 C 511.5 613.9 510.3 615.0 509.0 616.0 C 507.7 617.0 506.3 618.0 505.0 619.0 C 503.7 620.0 502.3 621.0 501.0 622.0 C 499.7 623.0 498.3 624.0 497.0 625.0 C 495.7 626.0 494.3 627.0 493.0 628.0 C 491.7 629.0 490.3 630.0 489.0 631.0 C 487.7 632.0 486.3 633.0 485.0 634.0 C 483.7 635.0 482.3 636.0 481.0 637.0 C 479.7 638.0 478.3 639.0 477.0 640.0 C 475.7 641.0 474.3 642.0 473.0 643.0 C 471.7 644.0 470.3 645.0 469.0 646.0 C 467.7 647.0 466.3 648.0 465.0 649.0 C 463.7 650.0 462.3 651.0 461.0 652.0 C 459.7 653.0 458.3 654.0 457.0 655.0 C 455.7 656.0 454.3 657.0 453.0 658.0 C 451.7 659.0 450.3 660.0 449.0 661.0 C 447.7 662.0 446.3 663.0 445.0 664.0 C 443.7 665.0 442.3 666.0 441.0 667.0 C 439.7 668.0 438.3 669.0 437.0 670.0 C 435.7 671.0 434.3 672.0 433.0 673.0 C 431.7 674.0 430.2 674.9 429.0 676.0 C 427.8 677.1 426.5 678.2 425.8 679.8 C 425.0 681.3 424.5 683.2 424.2 685.2 C 424.0 687.2 424.2 689.6 424.2 691.8 C 424.3 693.9 424.6 696.0 424.8 698.2 C 424.9 700.5 424.9 702.8 425.0 705.0 C 425.1 707.2 425.1 709.6 425.2 711.8 C 425.4 713.9 425.8 715.9 426.0 718.0 C 426.2 720.1 426.5 722.1 426.8 724.2 C 427.0 726.4 427.0 728.6 427.2 730.8 C 427.5 732.9 427.7 735.0 428.0 737.0 C 428.3 739.0 428.7 741.0 429.0 743.0 C 429.3 745.0 429.7 747.0 430.0 749.0 C 430.3 751.0 430.6 753.0 431.0 755.0 C 431.4 757.0 431.8 758.9 432.2 760.8 C 432.7 762.6 433.2 764.4 433.8 766.2 C 434.2 768.1 434.8 769.9 435.2 771.8 C 435.8 773.6 436.2 775.4 436.8 777.2 C 437.2 779.1 437.7 781.0 438.2 782.8 C 438.8 784.5 439.4 786.3 440.0 788.0 C 440.6 789.7 441.4 791.3 442.0 793.0 C 442.6 794.7 443.2 796.5 443.8 798.2 C 444.3 800.0 444.7 802.0 445.2 803.8 C 445.8 805.5 446.5 807.2 447.2 808.8 C 448.0 810.3 449.0 811.7 449.8 813.2 C 450.5 814.8 451.3 816.4 452.0 818.0 C 452.7 819.6 453.3 821.4 454.0 823.0 C 454.7 824.6 455.5 826.2 456.2 827.8 C 457.0 829.3 457.9 830.8 458.8 832.2 C 459.6 833.8 460.4 835.2 461.2 836.8 C 462.1 838.2 462.9 839.8 463.8 841.2 C 464.6 842.8 465.4 844.3 466.2 845.8 C 467.1 847.2 468.0 848.6 469.0 850.0 C 470.0 851.4 471.0 852.7 472.0 854.0 C 473.0 855.3 474.0 856.7 475.0 858.0 C 476.0 859.3 477.0 860.7 478.0 862.0 C 479.0 863.3 480.0 864.7 481.0 866.0 C 482.0 867.3 483.0 868.7 484.0 870.0 C 485.0 871.3 486.0 872.7 487.0 874.0 C 488.0 875.3 489.1 876.5 490.2 877.8 C 491.4 879.0 492.6 880.1 493.8 881.2 C 494.9 882.4 496.1 883.6 497.2 884.8 C 498.4 885.9 499.6 887.1 500.8 888.2 C 501.9 889.4 503.0 890.6 504.2 891.8 C 505.5 892.9 506.7 894.0 508.0 895.0 C 509.3 896.0 510.7 897.0 512.0 898.0 C 513.3 899.0 514.7 900.0 516.0 901.0 C 517.3 902.0 518.7 903.0 520.0 904.0 C 521.3 905.0 522.6 906.0 524.0 907.0 C 525.4 908.0 526.8 908.9 528.2 909.8 C 529.7 910.6 531.2 911.4 532.8 912.2 C 534.2 913.1 535.7 914.0 537.2 914.8 C 538.8 915.5 540.4 916.3 542.0 917.0 C 543.6 917.7 545.3 918.3 547.0 919.0 C 548.7 919.7 550.3 920.3 552.0 921.0 C 553.7 921.7 555.3 922.4 557.0 923.0 C 558.7 923.6 560.4 924.2 562.2 924.8 C 564.1 925.2 566.0 925.6 568.0 926.0 C 570.0 926.4 572.0 926.7 574.0 927.0 C 576.0 927.3 578.0 927.7 580.0 928.0 C 582.0 928.3 584.0 928.7 586.0 929.0 C 588.0 929.3 590.1 929.6 592.2 929.8 C 594.4 929.9 596.7 930.0 599.0 930.0 C 601.3 930.0 603.7 930.0 606.0 930.0 C 608.3 930.0 610.7 930.0 613.0 930.0 C 615.3 930.0 617.6 929.9 619.8 929.8 C 621.9 929.6 624.0 929.3 626.0 929.0 C 628.0 928.7 630.0 928.4 632.0 928.0 C 634.0 927.6 635.9 927.2 637.8 926.8 C 639.6 926.3 641.4 925.8 643.2 925.2 C 645.1 924.8 647.0 924.3 648.8 923.8 C 650.5 923.2 652.3 922.6 654.0 922.0 C 655.7 921.4 657.3 920.7 659.0 920.0 C 660.7 919.3 662.3 918.7 664.0 918.0 C 665.7 917.3 667.4 916.7 669.0 916.0 C 670.6 915.3 672.2 914.5 673.8 913.8 C 675.3 913.0 676.8 912.1 678.2 911.2 C 679.8 910.4 681.3 909.6 682.8 908.8 C 684.2 907.9 685.6 907.0 687.0 906.0 C 688.4 905.0 689.7 904.0 691.0 903.0 C 692.3 902.0 693.7 901.0 695.0 900.0 C 696.3 899.0 697.7 898.0 699.0 897.0 C 700.3 896.0 701.7 895.0 703.0 894.0 C 704.3 893.0 705.5 891.9 706.8 890.8 C 708.0 889.6 709.1 888.4 710.2 887.2 C 711.4 886.1 712.6 885.0 713.8 883.8 C 714.9 882.5 716.0 881.3 717.0 880.0 C 718.0 878.7 719.0 877.3 720.0 876.0 C 721.0 874.7 722.1 873.5 723.2 872.2 C 724.4 871.0 725.7 870.0 726.8 868.8 C 727.8 867.5 728.8 866.2 729.8 864.8 C 730.7 863.3 731.4 861.7 732.2 860.2 C 733.1 858.8 734.0 857.4 735.0 856.0 C 736.0 854.6 737.0 853.4 738.0 852.0 C 739.0 850.6 739.9 849.2 740.8 847.8 C 741.6 846.3 742.4 844.8 743.2 843.2 C 744.1 841.8 745.0 840.3 745.8 838.8 C 746.5 837.2 747.2 835.6 748.0 834.0 C 748.8 832.4 749.5 830.8 750.2 829.2 C 751.0 827.7 752.0 826.3 752.8 824.8 C 753.5 823.2 754.3 821.6 755.0 820.0 C 755.7 818.4 756.3 816.7 757.0 815.0 C 757.7 813.3 758.3 811.7 759.0 810.0 C 759.7 808.3 760.3 806.7 761.0 805.0 C 761.7 803.3 762.4 801.7 763.0 800.0 C 763.6 798.3 764.2 796.5 764.8 794.8 C 765.3 793.0 765.7 791.0 766.2 789.2 C 766.8 787.5 767.4 785.8 768.0 784.0 C 768.6 782.2 769.2 780.5 769.8 778.8 C 770.3 777.0 770.8 775.1 771.2 773.2 C 771.8 771.4 772.3 769.6 772.8 767.8 C 773.2 765.9 773.6 764.0 774.0 762.0 C 774.4 760.0 774.6 758.0 775.0 756.0 C 775.4 754.0 775.8 752.1 776.2 750.2 C 776.7 748.4 777.3 746.6 777.8 744.8 C 778.2 742.9 778.6 741.0 779.0 739.0 C 779.4 737.0 779.7 735.0 780.0 733.0 C 780.3 731.0 780.5 728.9 780.8 726.8 C 781.0 724.6 781.0 722.4 781.2 720.2 C 781.5 718.1 781.7 716.0 782.0 714.0 C 782.3 712.0 782.7 710.0 783.0 708.0 C 783.3 706.0 783.5 703.9 783.8 701.8 C 784.0 699.6 784.1 697.4 784.2 695.2 C 784.4 693.1 784.6 691.0 784.8 688.8 C 784.9 686.5 784.9 684.2 785.0 682.0 C 785.1 679.8 785.1 677.5 785.2 675.2 C 785.4 673.0 785.6 671.0 785.8 668.8 C 785.9 666.5 786.0 664.2 786.0 662.0 C 786.0 659.8 785.9 657.5 785.8 655.2 C 785.6 653.0 785.4 651.0 785.2 648.8 C 785.1 646.5 785.1 644.2 785.0 642.0 C 784.9 639.8 784.9 637.5 784.8 635.2 C 784.6 633.0 784.4 630.9 784.2 628.8 C 784.1 626.6 784.0 624.4 783.8 622.2 C 783.5 620.1 783.3 618.0 783.0 616.0 C 782.7 614.0 782.3 612.0 782.0 610.0 C 781.7 608.0 781.5 605.8 781.2 603.8 C 781.0 601.7 780.8 599.5 780.5 597.5 C 780.2 595.5 779.7 593.7 779.2 591.8 C 778.8 589.8 778.5 587.8 778.0 586.0 C 777.5 584.2 777.1 582.2 776.2 580.8 C 775.4 579.3 774.1 578.2 772.8 577.2 C 771.4 576.3 769.6 575.8 768.0 575.0 C 766.4 574.2 764.8 573.5 763.2 572.8 C 761.7 572.0 760.2 571.1 758.8 570.2 C 757.2 569.4 755.8 568.6 754.2 567.8 C 752.8 566.9 751.3 566.0 749.8 565.2 C 748.2 564.5 746.6 563.7 745.0 563.0 C 743.4 562.3 741.7 561.7 740.0 561.0 C 738.3 560.3 736.7 559.7 735.0 559.0 C 733.3 558.3 731.7 557.7 730.0 557.0 C 728.3 556.3 726.7 555.7 725.0 555.0 C 723.3 554.3 721.7 553.6 720.0 553.0 C 718.3 552.4 716.6 551.8 714.8 551.2 C 712.9 550.8 711.0 550.3 709.0 550.0 C 707.0 549.7 704.9 549.4 702.8 549.2 C 700.6 549.1 698.2 549.0 696.0 549.0 C 693.8 549.0 691.3 549.0 689.2 549.2 C 687.2 549.5 685.2 549.9 683.5 550.5 C 681.8 551.1 680.4 552.0 679.0 553.0 C 677.6 554.0 676.4 555.1 675.2 556.2 C 674.1 557.4 673.0 558.6 672.0 560.0 C 671.0 561.4 670.2 562.8 669.5 564.5 C 668.8 566.2 668.3 568.1 668.0 570.0 C 667.7 571.9 667.5 574.0 667.5 576.0 C 667.5 578.0 667.7 580.0 668.0 582.0 C 668.3 584.0 668.8 585.9 669.2 587.8 C 669.8 589.6 670.4 591.2 671.0 593.0 C 671.6 594.8 672.3 596.4 672.8 598.2 C 673.2 600.1 673.6 602.2 673.8 604.2 C 673.9 606.3 673.9 608.7 673.8 610.8 C 673.6 612.8 673.2 614.9 672.8 616.8 C 672.2 618.6 671.5 620.2 670.8 621.8 C 670.0 623.3 669.0 624.7 668.0 626.0 C 667.0 627.3 665.8 628.5 664.5 629.5 C 663.2 630.5 661.7 631.3 660.0 632.0 C 658.3 632.7 656.4 633.2 654.5 633.5 C 652.6 633.8 650.4 633.8 648.5 633.5 C 646.6 633.2 644.7 632.6 643.0 632.0 C 641.3 631.4 639.7 630.7 638.2 629.8 C 636.8 628.8 635.6 627.8 634.5 626.5 C 633.4 625.2 632.6 623.8 631.8 622.2 C 630.9 620.8 630.1 619.2 629.5 617.5 C 628.9 615.8 628.5 613.8 628.2 611.8 C 628.0 609.7 628.1 607.4 628.2 605.2 C 628.4 603.1 628.7 601.0 629.0 599.0 C 629.3 597.0 629.6 595.0 630.0 593.0 C 630.4 591.0 630.7 589.0 631.2 587.2 C 631.8 585.5 632.5 583.8 633.2 582.2 C 634.0 580.7 634.9 579.2 635.8 577.8 C 636.6 576.2 637.4 574.7 638.2 573.2 C 639.1 571.8 640.0 570.4 641.0 569.0 C 642.0 567.6 643.0 566.3 644.0 565.0 C 645.0 563.7 646.0 562.3 647.0 561.0 C 648.0 559.7 649.0 558.3 650.0 557.0 C 651.0 555.7 652.1 554.4 653.2 553.2 C 654.4 552.1 655.7 551.0 657.0 550.0 C 658.3 549.0 659.7 548.0 661.0 547.0 C 662.3 546.0 663.7 545.0 665.0 544.0 C 666.3 543.0 667.7 542.0 669.0 541.0 C 670.3 540.0 671.6 539.0 673.0 538.0 C 674.4 537.0 675.8 536.1 677.2 535.2 C 678.8 534.4 680.4 533.7 682.0 533.0 C 683.6 532.3 685.3 531.7 687.0 531.0 C 688.7 530.3 690.3 529.7 692.0 529.0 C 693.7 528.3 695.3 527.7 697.0 527.0 C 698.7 526.3 700.3 525.6 702.0 525.0 C 703.7 524.4 705.4 523.8 707.2 523.2 C 709.1 522.8 711.0 522.4 713.0 522.0 C 715.0 521.6 717.0 521.3 719.0 521.0 C 721.0 520.7 723.1 520.4 725.2 520.2 C 727.4 520.1 729.8 520.0 732.0 520.0 C 734.2 520.0 736.5 520.1 738.8 520.2 C 741.0 520.4 743.1 520.6 745.2 520.8 C 747.4 520.9 749.7 521.0 751.8 521.2 C 753.8 521.5 755.8 521.8 757.8 522.2 C 759.7 522.7 761.4 523.2 763.2 523.8 C 765.1 524.2 767.0 524.7 768.8 525.2 C 770.5 525.8 772.3 526.4 774.0 527.0 C 775.7 527.6 777.3 528.3 779.0 529.0 C 780.7 529.7 782.4 530.3 784.0 531.0 C 785.6 531.7 787.2 532.5 788.8 533.2 C 790.3 534.0 791.7 535.0 793.2 535.8 C 794.8 536.5 796.4 537.2 798.0 538.0 C 799.6 538.8 801.2 539.4 802.8 540.2 C 804.2 541.1 805.6 542.1 807.0 543.0 C 808.4 543.9 809.8 544.9 811.2 545.8 C 812.7 546.6 814.3 547.4 815.8 548.2 C 817.2 549.1 818.6 550.1 820.0 551.0 C 821.4 551.9 822.8 552.9 824.2 553.8 C 825.7 554.6 827.3 555.4 828.8 556.2 C 830.2 557.1 831.6 558.1 833.0 559.0 C 834.4 559.9 835.8 560.9 837.2 561.8 C 838.7 562.6 840.3 563.4 841.8 564.2 C 843.2 565.1 844.6 566.1 846.0 567.0 C 847.4 567.9 848.8 568.9 850.2 569.8 C 851.7 570.6 853.2 571.4 854.8 572.2 C 856.2 573.1 857.8 573.9 859.2 574.8 C 860.8 575.6 862.2 576.4 863.8 577.2 C 865.2 578.1 866.7 579.0 868.2 579.8 C 869.8 580.5 871.4 581.3 873.0 582.0 C 874.6 582.7 876.3 583.3 878.0 584.0 C 879.7 584.7 881.3 585.3 883.0 586.0 C 884.7 586.7 886.3 587.4 888.0 588.0 C 889.7 588.6 891.4 589.3 893.2 589.8 C 895.1 590.2 897.1 590.5 899.2 590.8 C 901.4 591.0 903.8 591.0 906.0 591.0 C 908.2 591.0 910.6 590.9 912.5 590.5 C 914.4 590.1 916.2 589.5 917.5 588.5 C 918.8 587.5 919.7 586.2 920.2 584.8 C 920.8 583.3 920.8 581.5 920.8 579.8 C 920.7 578.0 920.2 576.0 919.8 574.2 C 919.2 572.5 918.5 570.8 917.8 569.2 C 917.0 567.7 916.0 566.4 915.0 565.0 C 914.0 563.6 913.0 562.4 912.0 561.0 C 911.0 559.6 910.1 558.2 909.2 556.8 C 908.4 555.2 907.6 553.7 907.0 552.0 C 906.4 550.3 905.8 548.5 905.5 546.5 C 905.2 544.5 905.1 542.2 905.2 540.2 C 905.4 538.2 905.9 536.2 906.5 534.5 C 907.1 532.8 908.0 531.4 909.0 530.0 C 910.0 528.6 911.0 527.4 912.2 526.2 C 913.5 525.1 914.8 524.1 916.2 523.2 C 917.8 522.4 919.5 521.7 921.2 521.2 C 923.0 520.8 925.1 520.5 927.0 520.5 C 928.9 520.5 931.0 520.8 932.8 521.2 C 934.5 521.7 936.2 522.5 937.8 523.2 C 939.3 524.0 940.7 525.0 942.0 526.0 C 943.3 527.0 944.5 528.1 945.5 529.5 C 946.5 530.9 947.2 532.5 947.8 534.2 C 948.3 536.0 948.7 538.0 949.0 540.0 C 949.3 542.0 949.6 544.1 949.8 546.2 C 949.9 548.4 949.9 550.6 949.8 552.8 C 949.6 554.9 949.3 557.0 949.0 559.0 C 948.7 561.0 948.4 563.0 948.0 565.0 C 947.6 567.0 947.2 568.9 946.8 570.8 C 946.2 572.6 945.7 574.3 945.0 576.0 C 944.3 577.7 943.6 579.2 942.8 580.8 C 941.9 582.2 941.0 583.6 940.0 585.0 C 939.0 586.4 938.0 587.7 937.0 589.0 C 936.0 590.3 935.0 591.7 934.0 593.0 C 933.0 594.3 931.9 595.6 930.8 596.8 C 929.6 597.9 928.3 599.0 927.0 600.0 C 925.7 601.0 924.3 602.0 923.0 603.0 C 921.7 604.0 920.4 605.0 919.0 606.0 C 917.6 607.0 916.2 607.9 914.8 608.8 C 913.2 609.6 911.6 610.3 910.0 611.0 C 908.4 611.7 906.7 612.3 905.0 613.0 C 903.3 613.7 901.7 614.4 900.0 615.0 C 898.3 615.6 896.6 616.3 894.8 616.8 C 892.9 617.2 890.9 617.5 888.8 617.8 C 886.6 618.0 884.3 618.0 882.0 618.0 C 879.7 618.0 877.3 618.0 875.0 618.0 C 872.7 618.0 870.4 617.9 868.2 617.8 C 866.1 617.6 864.0 617.3 862.0 617.0 C 860.0 616.7 858.1 616.2 856.2 615.8 C 854.4 615.3 852.5 614.7 850.8 614.2 C 849.0 613.8 847.1 613.2 845.8 613.2 C 844.4 613.3 843.3 613.7 842.8 614.8 C 842.2 615.8 842.2 617.9 842.2 619.8 C 842.3 621.6 842.7 624.0 843.0 626.0 C 843.3 628.0 843.7 630.0 844.0 632.0 C 844.3 634.0 844.5 636.1 844.8 638.2 C 845.0 640.4 845.1 642.6 845.2 644.8 C 845.4 646.9 845.6 649.0 845.8 651.2 C 845.9 653.5 845.9 655.8 846.0 658.0 C 846.1 660.2 846.1 662.5 846.2 664.8 C 846.4 667.0 846.7 669.1 846.8 671.2 C 846.8 673.4 846.8 675.6 846.8 677.8 C 846.7 679.9 846.4 682.0 846.2 684.2 C 846.1 686.5 846.1 688.8 846.0 691.0 C 845.9 693.2 845.9 695.5 845.8 697.8 C 845.6 700.0 845.4 702.1 845.2 704.2 C 845.1 706.4 845.0 708.6 844.8 710.8 C 844.5 712.9 844.3 715.0 844.0 717.0 C 843.7 719.0 843.3 721.0 843.0 723.0 C 842.7 725.0 842.3 727.0 842.0 729.0 C 841.7 731.0 841.3 733.0 841.0 735.0 C 840.7 737.0 840.4 739.0 840.0 741.0 C 839.6 743.0 839.2 744.9 838.8 746.8 C 838.3 748.6 837.7 750.4 837.2 752.2 C 836.8 754.1 836.4 756.1 836.0 758.0 C 835.6 759.9 835.2 761.9 834.8 763.8 C 834.2 765.6 833.6 767.2 833.0 769.0 C 832.4 770.8 831.8 772.5 831.2 774.2 C 830.7 776.0 830.3 778.0 829.8 779.8 C 829.2 781.5 828.6 783.3 828.0 785.0 C 827.4 786.7 826.7 788.3 826.0 790.0 C 825.3 791.7 824.7 793.3 824.0 795.0 C 823.3 796.7 822.7 798.3 822.0 800.0 C 821.3 801.7 820.7 803.3 820.0 805.0 C 819.3 806.7 818.7 808.4 818.0 810.0 C 817.3 811.6 816.5 813.2 815.8 814.8 C 815.0 816.3 814.0 817.7 813.2 819.2 C 812.5 820.8 811.8 822.4 811.0 824.0 C 810.2 825.6 809.5 827.2 808.8 828.8 C 808.0 830.3 807.1 831.8 806.2 833.2 C 805.4 834.8 804.6 836.3 803.8 837.8 C 802.9 839.2 802.0 840.6 801.0 842.0 C 800.0 843.4 799.0 844.7 798.0 846.0 C 797.0 847.3 796.0 848.7 795.0 850.0 C 794.0 851.3 793.0 852.7 792.0 854.0 C 791.0 855.3 790.0 856.7 789.0 858.0 C 788.0 859.3 787.0 860.7 786.0 862.0 C 785.0 863.3 784.0 864.7 783.0 866.0 C 782.0 867.3 781.0 868.7 780.0 870.0 C 779.0 871.3 777.9 872.5 776.8 873.8 C 775.6 875.0 774.4 876.0 773.2 877.2 C 772.1 878.5 771.1 879.8 770.0 881.0 C 768.9 882.2 767.9 883.6 766.8 884.8 C 765.6 885.9 764.2 886.9 763.0 888.0 C 761.8 889.1 760.5 890.1 759.2 891.2 C 758.0 892.4 757.0 893.6 755.8 894.8 C 754.5 895.9 753.3 897.0 752.0 898.0 C 750.7 899.0 749.3 900.0 748.0 901.0 C 746.7 902.0 745.3 903.0 744.0 904.0 C 742.7 905.0 741.3 906.0 740.0 907.0 C 738.7 908.0 737.4 909.0 736.0 910.0 C 734.6 911.0 733.2 911.9 731.8 912.8 C 730.3 913.6 728.8 914.4 727.2 915.2 C 725.8 916.1 724.2 916.9 722.8 917.8 C 721.2 918.6 719.8 919.4 718.2 920.2 C 716.8 921.1 715.3 922.0 713.8 922.8 C 712.2 923.5 710.6 924.2 709.0 925.0 C 707.4 925.8 705.8 926.5 704.2 927.2 C 702.7 928.0 701.3 929.0 699.8 929.8 C 698.2 930.5 696.6 931.3 695.0 932.0 C 693.4 932.7 691.7 933.4 690.0 934.0 C 688.3 934.6 686.5 935.2 684.8 935.8 C 683.0 936.3 681.0 936.7 679.2 937.2 C 677.5 937.8 675.8 938.4 674.0 939.0 C 672.2 939.6 670.6 940.2 668.8 940.8 C 666.9 941.2 665.0 941.6 663.0 942.0 C 661.0 942.4 659.0 942.6 657.0 943.0 C 655.0 943.4 653.2 943.8 651.2 944.2 C 649.3 944.7 647.5 945.2 645.5 945.5 C 643.5 945.8 641.3 946.0 639.2 946.2 C 637.2 946.5 635.1 946.8 633.0 947.0 C 630.9 947.2 628.9 947.5 626.8 947.8 C 624.6 948.0 622.4 948.1 620.2 948.2 C 618.1 948.4 616.0 948.6 613.8 948.8 C 611.5 948.9 609.3 949.0 607.0 949.0 C 604.7 949.0 602.3 949.0 600.0 949.0 C 597.7 949.0 595.5 948.9 593.2 948.8 C 591.0 948.6 588.9 948.4 586.8 948.2 C 584.6 948.1 582.4 947.9 580.2 947.8 C 578.1 947.6 575.9 947.4 573.8 947.2 C 571.6 947.1 569.4 947.0 567.2 946.8 C 565.1 946.5 563.0 946.3 561.0 946.0 C 559.0 945.7 557.0 945.3 555.0 945.0 C 553.0 944.7 551.0 944.4 549.0 944.0 C 547.0 943.6 545.1 943.2 543.2 942.8 C 541.4 942.3 539.6 941.8 537.8 941.2 C 535.9 940.8 534.1 940.2 532.2 939.8 C 530.4 939.2 528.6 938.8 526.8 938.2 C 524.9 937.8 523.0 937.3 521.2 936.8 C 519.5 936.2 517.7 935.6 516.0 935.0 C 514.3 934.4 512.7 933.7 511.0 933.0 C 509.3 932.3 507.7 931.7 506.0 931.0 C 504.3 930.3 502.7 929.7 501.0 929.0 C 499.3 928.3 497.6 927.7 496.0 927.0 C 494.4 926.3 492.8 925.5 491.2 924.8 C 489.7 924.0 488.2 923.1 486.8 922.2 C 485.2 921.4 483.8 920.6 482.2 919.8 C 480.8 918.9 479.2 918.1 477.8 917.2 C 476.2 916.4 474.7 915.6 473.2 914.8 C 471.8 913.9 470.4 913.0 469.0 912.0 C 467.6 911.0 466.3 910.0 465.0 909.0 C 463.7 908.0 462.3 907.0 461.0 906.0 C 459.7 905.0 458.3 904.0 457.0 903.0 C 455.7 902.0 454.3 901.0 453.0 900.0 C 451.7 899.0 450.3 898.0 449.0 897.0 C 447.7 896.0 446.3 895.0 445.0 894.0 C 443.7 893.0 442.5 891.9 441.2 890.8 C 440.0 889.6 438.9 888.4 437.8 887.2 C 436.6 886.1 435.4 884.9 434.2 883.8 C 433.1 882.6 431.9 881.4 430.8 880.2 C 429.6 879.1 428.4 878.0 427.2 876.8 C 426.1 875.5 425.1 874.2 424.0 873.0 C 422.9 871.8 421.9 870.5 420.8 869.2 C 419.6 868.0 418.4 867.0 417.2 865.8 C 416.1 864.5 415.0 863.3 414.0 862.0 C 413.0 860.7 412.0 859.4 411.0 858.0 C 410.0 856.6 409.1 855.2 408.2 853.8 C 407.4 852.3 406.6 850.7 405.8 849.2 C 404.9 847.8 404.0 846.4 403.0 845.0 C 402.0 843.6 401.0 842.4 400.0 841.0 C 399.0 839.6 398.1 838.2 397.2 836.8 C 396.4 835.3 395.6 833.8 394.8 832.2 C 393.9 830.8 393.0 829.3 392.2 827.8 C 391.5 826.2 390.8 824.6 390.0 823.0 C 389.2 821.4 388.5 819.8 387.8 818.2 C 387.0 816.7 386.0 815.3 385.2 813.8 C 384.5 812.2 383.7 810.6 383.0 809.0 C 382.3 807.4 381.7 805.7 381.0 804.0 C 380.3 802.3 379.7 800.7 379.0 799.0 C 378.3 797.3 377.7 795.7 377.0 794.0 C 376.3 792.3 375.6 790.7 375.0 789.0 C 374.4 787.3 373.8 785.5 373.2 783.8 C 372.7 782.0 372.3 780.0 371.8 778.2 C 371.2 776.5 370.6 774.8 370.0 773.0 C 369.4 771.2 368.8 769.5 368.2 767.8 C 367.7 766.0 367.2 764.1 366.8 762.2 C 366.2 760.4 365.7 758.6 365.2 756.8 C 364.8 754.9 364.4 753.0 364.0 751.0 C 363.6 749.0 363.3 747.0 363.0 745.0 C 362.7 743.0 362.3 741.0 362.0 739.0 C 361.7 737.0 361.3 735.0 361.0 733.0 C 360.7 731.0 360.3 729.0 360.0 727.0 C 359.7 725.0 359.3 723.0 359.0 721.0 C 358.7 719.0 358.5 716.9 358.2 714.8 C 358.0 712.6 357.9 710.4 357.8 708.2 C 357.6 706.1 357.4 704.0 357.2 701.8 C 357.1 699.5 357.0 697.3 357.0 695.0 C 357.0 692.7 357.0 690.3 357.0 688.0 C 357.0 685.7 357.0 683.3 357.0 681.0 C 357.0 678.7 357.1 676.5 357.2 674.2 C 357.4 672.0 357.6 669.9 357.8 667.8 C 357.9 665.6 358.1 663.4 358.2 661.2 C 358.4 659.1 358.6 656.9 358.8 654.8 C 358.9 652.6 359.0 650.4 359.2 648.2 C 359.5 646.1 359.7 644.0 360.0 642.0 C 360.3 640.0 360.6 638.0 361.0 636.0 C 361.4 634.0 361.8 632.1 362.2 630.2 C 362.7 628.4 363.3 626.6 363.8 624.8 C 364.2 622.9 364.6 620.9 365.0 619.0 C 365.4 617.1 365.8 615.1 366.2 613.2 C 366.7 611.4 367.2 609.6 367.8 607.8 C 368.2 605.9 368.7 604.0 369.2 602.2 C 369.8 600.5 370.4 598.7 371.0 597.0 C 371.6 595.3 372.3 593.7 373.0 592.0 C 373.7 590.3 374.4 588.7 375.0 587.0 C 375.6 585.3 376.2 583.5 376.8 581.8 C 377.3 580.0 377.8 578.2 378.5 576.5 C 379.2 574.8 380.0 573.3 380.8 571.8 C 381.5 570.2 382.3 568.6 383.0 567.0 C 383.7 565.4 384.3 563.6 385.0 562.0 C 385.7 560.4 386.5 558.8 387.2 557.2 C 388.0 555.7 389.0 554.3 389.8 552.8 C 390.5 551.2 391.2 549.6 392.0 548.0 C 392.8 546.4 393.4 544.8 394.2 543.2 C 395.1 541.8 396.1 540.4 397.0 539.0 C 397.9 537.6 398.9 536.2 399.8 534.8 C 400.6 533.3 401.4 531.7 402.2 530.2 C 403.1 528.8 404.0 527.4 405.0 526.0 C 406.0 524.6 407.0 523.3 408.0 522.0 C 409.0 520.7 410.0 519.3 411.0 518.0 C 412.0 516.7 413.0 515.3 414.0 514.0 C 415.0 512.7 416.0 511.3 417.0 510.0 C 418.0 508.7 419.1 507.5 420.2 506.2 C 421.4 505.0 422.6 504.0 423.8 502.8 C 424.9 501.5 425.9 500.2 427.0 499.0 C 428.1 497.8 429.1 496.5 430.2 495.2 C 431.4 494.0 432.6 492.9 433.8 491.8 C 434.9 490.6 436.0 489.4 437.2 488.2 C 438.5 487.1 439.8 486.1 441.0 485.0 C 442.2 483.9 443.5 482.9 444.8 481.8 C 446.0 480.6 447.0 479.4 448.2 478.2 C 449.5 477.1 450.7 476.0 452.0 475.0 C 453.3 474.0 454.7 473.0 456.0 472.0 C 457.3 471.0 458.6 470.0 460.0 469.0 C 461.4 468.0 462.8 467.1 464.2 466.2 C 465.7 465.4 467.3 464.6 468.8 463.8 C 470.2 462.9 471.6 461.9 473.0 461.0 C 474.4 460.1 475.8 459.1 477.2 458.2 C 478.7 457.4 480.2 456.6 481.8 455.8 C 483.2 454.9 484.7 454.0 486.2 453.2 C 487.8 452.5 489.4 451.7 491.0 451.0 C 492.6 450.3 494.4 449.7 496.0 449.0 C 497.6 448.3 499.2 447.5 500.8 446.8 C 502.3 446.0 503.7 445.0 505.2 444.2 C 506.8 443.5 508.5 442.8 510.2 442.2 C 512.0 441.7 514.0 441.3 515.8 440.8 C 517.5 440.2 519.3 439.6 521.0 439.0 C 522.7 438.4 524.3 437.6 526.0 437.0 C 527.7 436.4 529.4 435.8 531.2 435.2 C 533.1 434.8 535.0 434.4 537.0 434.0 C 539.0 433.6 541.0 433.3 543.0 433.0 C 545.0 432.7 547.0 432.3 549.0 432.0 C 551.0 431.7 553.0 431.3 555.0 431.0 C 557.0 430.7 559.0 430.3 561.0 430.0 C 563.0 429.7 565.0 429.3 567.0 429.0 C 569.0 428.7 571.1 428.4 573.2 428.2 C 575.4 428.1 577.7 428.0 580.0 428.0 C 582.3 428.0 584.7 428.0 587.0 428.0 C 589.3 428.0 591.7 428.0 594.0 428.0 C 596.3 428.0 598.7 428.0 601.0 428.0 C 603.3 428.0 605.6 428.1 607.8 428.2 C 609.9 428.4 612.0 428.7 614.0 429.0 C 616.0 429.3 618.0 429.7 620.0 430.0 C 622.0 430.3 624.0 430.6 626.0 431.0 C 628.0 431.4 629.9 431.8 631.8 432.2 C 633.6 432.7 635.4 433.2 637.2 433.8 C 639.1 434.2 641.0 434.7 642.8 435.2 C 644.5 435.8 646.2 436.5 647.8 437.2 C 649.3 438.0 650.8 439.0 652.2 439.8 C 653.8 440.5 655.3 441.4 656.8 441.8 C 658.2 442.1 659.5 442.2 660.8 441.8 C 662.0 441.3 663.0 440.2 664.0 439.0 C 665.0 437.8 665.9 436.2 666.8 434.8 C 667.6 433.3 668.4 431.7 669.2 430.2 C 670.1 428.8 671.1 427.4 672.0 426.0 C 672.9 424.6 673.9 423.2 674.8 421.8 C 675.6 420.3 676.4 418.8 677.2 417.2 C 678.1 415.8 679.0 414.3 679.8 412.8 C 680.5 411.2 681.3 409.6 682.0 408.0 C 682.7 406.4 683.3 404.7 684.0 403.0 C 684.7 401.3 685.4 399.7 686.0 398.0 C 686.6 396.3 687.2 394.6 687.8 392.8 C 688.2 390.9 688.6 389.0 689.0 387.0 C 689.4 385.0 689.7 383.0 690.0 381.0 C 690.3 379.0 690.6 376.9 690.8 374.8 C 690.9 372.6 690.9 370.4 690.8 368.2 C 690.6 366.1 690.3 364.0 690.0 362.0 C 689.7 360.0 689.3 358.0 688.8 356.2 C 688.2 354.5 687.5 352.8 686.8 351.2 C 686.0 349.7 685.0 348.3 684.0 347.0 C 683.0 345.7 681.9 344.4 680.8 343.2 C 679.6 342.1 678.2 341.1 677.0 340.0 C 675.8 338.9 674.5 337.9 673.2 336.8 C 672.0 335.6 670.9 334.4 669.8 333.2 C 668.6 332.1 667.3 331.0 666.2 329.8 C 665.2 328.5 664.1 327.2 663.2 325.8 C 662.4 324.3 661.6 322.7 661.0 321.0 C 660.4 319.3 659.8 317.5 659.5 315.5 C 659.2 313.5 659.1 311.3 659.2 309.2 C 659.4 307.2 659.8 305.1 660.2 303.2 C 660.8 301.4 661.5 299.8 662.2 298.2 C 663.0 296.7 664.0 295.3 665.0 294.0 C 666.0 292.7 667.0 291.4 668.2 290.2 C 669.5 289.1 670.8 288.1 672.2 287.2 C 673.7 286.4 675.2 285.6 676.8 285.0 C 678.3 284.4 679.9 283.8 681.8 283.5 Z M 559.5 449.2 C 557.7 449.4 555.9 449.7 554.0 450.0 C 552.1 450.3 550.0 450.6 548.0 451.0 C 546.0 451.4 544.1 451.8 542.2 452.2 C 540.4 452.8 538.7 453.4 537.0 454.0 C 535.3 454.6 533.7 455.3 532.0 456.0 C 530.3 456.7 528.7 457.3 527.0 458.0 C 525.3 458.7 523.6 459.3 522.0 460.0 C 520.4 460.7 518.8 461.4 517.2 462.2 C 515.8 463.1 514.4 464.1 513.0 465.0 C 511.6 465.9 510.2 466.9 508.8 467.8 C 507.3 468.6 505.7 469.4 504.2 470.2 C 502.8 471.1 501.3 472.0 500.0 473.0 C 498.7 474.0 497.5 475.1 496.2 476.2 C 495.0 477.4 494.0 478.6 492.8 479.8 C 491.5 480.9 490.2 481.9 489.0 483.0 C 487.8 484.1 486.4 485.1 485.2 486.2 C 484.1 487.4 483.0 488.7 482.0 490.0 C 481.0 491.3 480.0 492.7 479.0 494.0 C 478.0 495.3 477.0 496.7 476.0 498.0 C 475.0 499.3 474.0 500.7 473.0 502.0 C 472.0 503.3 471.0 504.7 470.0 506.0 C 469.0 507.3 468.0 508.7 467.0 510.0 C 466.0 511.3 465.0 512.6 464.0 514.0 C 463.0 515.4 462.1 516.8 461.2 518.2 C 460.4 519.7 459.6 521.2 458.8 522.8 C 457.9 524.2 457.0 525.7 456.2 527.2 C 455.5 528.8 454.8 530.4 454.0 532.0 C 453.2 533.6 452.5 535.2 451.8 536.8 C 451.0 538.3 450.0 539.7 449.2 541.2 C 448.5 542.8 447.7 544.4 447.0 546.0 C 446.3 547.6 445.6 549.3 445.0 551.0 C 444.4 552.7 443.8 554.5 443.2 556.2 C 442.7 558.0 442.3 560.0 441.8 561.8 C 441.2 563.5 440.6 565.2 440.0 567.0 C 439.4 568.8 438.8 570.5 438.2 572.2 C 437.7 574.0 437.2 575.9 436.8 577.8 C 436.2 579.6 435.8 581.4 435.2 583.2 C 434.8 585.1 434.2 586.9 433.8 588.8 C 433.2 590.6 432.7 592.4 432.2 594.2 C 431.8 596.1 431.4 598.0 431.0 600.0 C 430.6 602.0 430.3 604.0 430.0 606.0 C 429.7 608.0 429.3 610.0 429.0 612.0 C 428.7 614.0 428.3 616.0 428.0 618.0 C 427.7 620.0 427.5 622.1 427.2 624.2 C 427.0 626.4 427.0 628.6 426.8 630.8 C 426.5 632.9 426.2 634.9 426.0 637.0 C 425.8 639.1 425.4 641.1 425.2 643.2 C 425.1 645.4 425.0 648.0 425.2 649.8 C 425.5 651.5 426.0 653.2 426.8 653.8 C 427.5 654.3 428.8 653.6 430.0 653.0 C 431.2 652.4 432.7 651.0 434.0 650.0 C 435.3 649.0 436.7 648.0 438.0 647.0 C 439.3 646.0 440.7 645.0 442.0 644.0 C 443.3 643.0 444.7 642.0 446.0 641.0 C 447.3 640.0 448.7 639.0 450.0 638.0 C 451.3 637.0 452.7 636.0 454.0 635.0 C 455.3 634.0 456.7 633.0 458.0 632.0 C 459.3 631.0 460.7 630.0 462.0 629.0 C 463.3 628.0 464.7 627.0 466.0 626.0 C 467.3 625.0 468.7 624.0 470.0 623.0 C 471.3 622.0 472.7 621.0 474.0 620.0 C 475.3 619.0 476.7 618.0 478.0 617.0 C 479.3 616.0 480.7 615.0 482.0 614.0 C 483.3 613.0 484.7 612.0 486.0 611.0 C 487.3 610.0 488.7 609.0 490.0 608.0 C 491.3 607.0 492.5 605.9 493.8 604.8 C 495.0 603.6 496.0 602.4 497.2 601.2 C 498.5 600.1 499.7 599.0 501.0 598.0 C 502.3 597.0 503.7 596.0 505.0 595.0 C 506.3 594.0 507.7 593.0 509.0 592.0 C 510.3 591.0 511.7 590.0 513.0 589.0 C 514.3 588.0 515.7 587.0 517.0 586.0 C 518.3 585.0 519.7 584.0 521.0 583.0 C 522.3 582.0 523.5 580.9 524.8 579.8 C 526.0 578.6 527.0 577.4 528.2 576.2 C 529.5 575.1 530.7 574.0 532.0 573.0 C 533.3 572.0 534.7 571.0 536.0 570.0 C 537.3 569.0 538.7 568.0 540.0 567.0 C 541.3 566.0 542.5 564.9 543.8 563.8 C 545.0 562.6 546.0 561.4 547.2 560.2 C 548.5 559.1 549.8 558.1 551.0 557.0 C 552.2 555.9 553.5 554.9 554.8 553.8 C 556.0 552.6 557.0 551.4 558.2 550.2 C 559.5 549.1 560.7 548.0 562.0 547.0 C 563.3 546.0 564.7 545.0 566.0 544.0 C 567.3 543.0 568.5 541.9 569.8 540.8 C 571.0 539.6 572.0 538.4 573.2 537.2 C 574.5 536.1 575.8 535.1 577.0 534.0 C 578.2 532.9 579.5 531.9 580.8 530.8 C 582.0 529.6 583.0 528.4 584.2 527.2 C 585.5 526.1 586.8 525.1 588.0 524.0 C 589.2 522.9 590.5 521.9 591.8 520.8 C 593.0 519.6 594.1 518.4 595.2 517.2 C 596.4 516.1 597.6 514.9 598.8 513.8 C 599.9 512.6 601.1 511.4 602.2 510.2 C 603.4 509.1 604.6 507.9 605.8 506.8 C 606.9 505.6 608.1 504.4 609.2 503.2 C 610.4 502.1 611.6 500.9 612.8 499.8 C 613.9 498.6 615.1 497.4 616.2 496.2 C 617.4 495.1 618.6 494.0 619.8 492.8 C 620.9 491.5 622.2 490.3 623.0 489.0 C 623.8 487.7 624.6 486.2 624.8 484.8 C 624.9 483.3 624.4 481.7 623.8 480.2 C 623.1 478.8 622.0 477.4 621.0 476.0 C 620.0 474.6 619.0 473.3 618.0 472.0 C 617.0 470.7 616.0 469.3 615.0 468.0 C 614.0 466.7 612.9 465.4 611.8 464.2 C 610.6 463.1 609.3 462.0 608.0 461.0 C 606.7 460.0 605.2 459.1 603.8 458.2 C 602.2 457.4 600.6 456.7 599.0 456.0 C 597.4 455.3 595.7 454.6 594.0 454.0 C 592.3 453.4 590.6 452.8 588.8 452.2 C 586.9 451.8 585.0 451.4 583.0 451.0 C 581.0 450.6 579.0 450.3 577.0 450.0 C 575.0 449.7 572.8 449.4 570.8 449.2 C 568.7 449.1 566.6 449.0 564.8 449.0 C 562.9 449.0 561.3 449.1 559.5 449.2 Z" fill="#F3E8D8"/></svg>
