<svg xmlns="http://www.w3.org/2000/svg" viewBox="0 0 512 512" width="512" height="512">
  <rect width="512" height="512" fill="#1D4354"/>
  <g fill="none" stroke="#EFEAE0" stroke-linecap="round" stroke-linejoin="round">
    <path d="M281 193 C225 180 171 224 153 292 C134 365 155 440 215 462 C274 483 331 434 345 361 C359 289 339 207 281 193 Z" stroke-width="29"/>
    <path d="M322 249 C296 223 301 181 329 155 C352 134 380 139 384 161 C389 188 360 217 322 249 L291 271 C260 297 234 328 239 361" stroke-width="24"/>
    <path d="M291 271 C319 293 334 326 358 341 C381 356 412 348 425 324 C432 311 433 296 429 286" stroke-width="24"/>
  </g>
</svg>
