<svg xmlns="http://www.w3.org/2000/svg" viewBox="0 0 1254 1254" width="512" height="512">
  <rect width="1254" height="1254" fill="#1D4354"/>
  <path d="M 671.2 354.0 C 673.9 353.3 677.1 353.1 679.8 353.2 C 682.4 353.4 685.0 354.0 687.2 354.8 C 689.5 355.5 691.2 356.8 693.0 358.0 C 694.8 359.2 696.3 360.7 697.8 362.2 C 699.2 363.8 700.5 365.5 701.8 367.2 C 703.0 369.0 704.0 371.0 705.0 373.0 C 706.0 375.0 706.9 377.1 707.5 379.5 C 708.1 381.9 708.5 384.5 708.8 387.2 C 709.0 390.0 709.0 393.1 709.0 396.0 C 709.0 398.9 709.0 402.0 708.8 404.8 C 708.5 407.5 708.2 410.2 707.8 412.8 C 707.3 415.3 706.6 417.6 706.0 420.0 C 705.4 422.4 704.7 424.7 704.0 427.0 C 703.3 429.3 702.6 431.6 701.8 433.8 C 700.9 435.9 700.0 438.0 699.0 440.0 C 698.0 442.0 697.0 444.0 696.0 446.0 C 695.0 448.0 694.0 450.0 693.0 452.0 C 692.0 454.0 691.0 456.0 690.0 458.0 C 689.0 460.0 688.0 462.0 687.0 464.0 C 686.0 466.0 684.8 467.9 683.8 469.8 C 682.7 471.6 681.2 473.5 680.8 475.2 C 680.2 477.0 680.0 478.8 680.8 480.2 C 681.5 481.7 683.3 482.9 685.0 484.0 C 686.7 485.1 689.0 486.0 691.0 487.0 C 693.0 488.0 695.0 489.0 697.0 490.0 C 699.0 491.0 700.9 492.1 702.8 493.2 C 704.6 494.4 706.3 495.7 708.0 497.0 C 709.7 498.3 711.3 499.7 713.0 501.0 C 714.7 502.3 716.3 503.7 718.0 505.0 C 719.7 506.3 721.4 507.6 723.0 509.0 C 724.6 510.4 726.2 511.8 727.8 513.2 C 729.2 514.8 730.6 516.4 732.0 518.0 C 733.4 519.6 734.7 521.3 736.0 523.0 C 737.3 524.7 738.7 526.3 740.0 528.0 C 741.3 529.7 742.5 531.5 743.8 533.2 C 745.0 535.0 746.1 536.9 747.2 538.8 C 748.4 540.6 749.6 542.4 750.8 544.2 C 751.9 546.1 753.0 548.0 754.0 550.0 C 755.0 552.0 756.0 554.0 757.0 556.0 C 758.0 558.0 759.0 560.0 760.0 562.0 C 761.0 564.0 762.0 566.0 763.0 568.0 C 764.0 570.0 764.9 572.1 765.8 574.2 C 766.6 576.4 767.4 578.6 768.2 580.8 C 769.1 582.9 769.9 585.1 770.8 587.2 C 771.6 589.4 772.4 591.6 773.5 593.5 C 774.6 595.4 775.8 597.2 777.2 598.8 C 778.7 600.3 780.4 601.6 782.0 603.0 C 783.6 604.4 785.3 605.7 787.0 607.0 C 788.7 608.3 790.3 609.7 792.0 611.0 C 793.7 612.3 795.5 613.5 797.2 614.8 C 799.0 616.0 800.9 617.1 802.8 618.2 C 804.6 619.4 806.3 620.7 808.2 621.8 C 810.2 622.8 812.1 623.9 814.2 624.8 C 816.4 625.6 818.7 626.4 821.0 627.0 C 823.3 627.6 825.9 628.2 828.2 628.2 C 830.6 628.3 833.2 628.0 835.2 627.2 C 837.3 626.5 839.2 625.1 840.5 623.5 C 841.8 621.9 842.7 619.7 843.0 617.5 C 843.3 615.3 843.0 612.8 842.5 610.5 C 842.0 608.2 840.9 606.1 840.0 604.0 C 839.1 601.9 837.9 600.1 837.0 598.0 C 836.1 595.9 835.0 593.8 834.5 591.5 C 834.0 589.2 833.7 586.7 834.0 584.5 C 834.3 582.3 835.1 580.0 836.2 578.2 C 837.4 576.5 838.9 574.8 840.8 573.8 C 842.6 572.7 845.0 571.9 847.2 571.8 C 849.5 571.6 852.2 572.0 854.2 572.8 C 856.3 573.5 858.1 574.9 859.5 576.5 C 860.9 578.1 862.0 580.1 862.8 582.2 C 863.5 584.4 864.0 586.8 864.2 589.2 C 864.5 591.7 864.3 594.5 864.0 597.0 C 863.7 599.5 863.2 602.2 862.5 604.5 C 861.8 606.8 860.9 608.9 860.0 611.0 C 859.1 613.1 858.0 615.0 857.0 617.0 C 856.0 619.0 855.0 621.0 853.8 622.8 C 852.5 624.5 851.2 626.2 849.8 627.8 C 848.3 629.3 846.7 630.7 845.0 632.0 C 843.3 633.3 841.6 634.6 839.8 635.8 C 837.9 636.9 835.9 637.9 833.8 638.8 C 831.6 639.6 829.2 640.2 826.8 640.8 C 824.3 641.3 821.6 641.7 819.0 642.0 C 816.4 642.3 813.6 642.5 811.0 642.5 C 808.4 642.5 805.8 642.2 803.2 641.8 C 800.8 641.3 798.3 640.7 796.0 640.0 C 793.7 639.3 791.2 638.2 789.2 637.8 C 787.3 637.3 785.5 636.8 784.5 637.5 C 783.5 638.2 783.4 640.1 783.2 642.2 C 783.1 644.4 783.6 647.5 783.8 650.2 C 783.9 653.0 784.0 656.0 784.0 659.0 C 784.0 662.0 784.0 665.0 784.0 668.0 C 784.0 671.0 784.0 674.0 784.0 677.0 C 784.0 680.0 784.0 683.0 784.0 686.0 C 784.0 689.0 783.9 691.9 783.8 694.8 C 783.6 697.6 783.3 700.3 783.0 703.0 C 782.7 705.7 782.2 708.2 781.8 710.8 C 781.3 713.3 780.8 715.8 780.2 718.2 C 779.8 720.8 779.3 723.3 778.8 725.8 C 778.2 728.2 777.6 730.6 777.0 733.0 C 776.4 735.4 775.7 737.7 775.0 740.0 C 774.3 742.3 773.7 744.7 773.0 747.0 C 772.3 749.3 771.7 751.7 771.0 754.0 C 770.3 756.3 769.5 758.5 768.8 760.8 C 768.0 763.0 767.1 765.1 766.2 767.2 C 765.4 769.4 764.6 771.6 763.8 773.8 C 762.9 775.9 762.0 778.0 761.0 780.0 C 760.0 782.0 759.0 784.0 758.0 786.0 C 757.0 788.0 755.9 789.9 754.8 791.8 C 753.6 793.6 752.4 795.4 751.2 797.2 C 750.1 799.1 749.0 801.0 747.8 802.8 C 746.5 804.5 745.2 806.2 744.0 808.0 C 742.8 809.8 741.5 811.5 740.2 813.2 C 739.0 815.0 738.0 817.0 736.8 818.8 C 735.5 820.5 734.2 822.2 732.8 823.8 C 731.3 825.3 729.8 826.8 728.2 828.2 C 726.8 829.8 725.2 831.2 723.8 832.8 C 722.2 834.2 720.8 835.8 719.2 837.2 C 717.8 838.8 716.3 840.3 714.8 841.8 C 713.2 843.2 711.6 844.6 710.0 846.0 C 708.4 847.4 706.7 848.7 705.0 850.0 C 703.3 851.3 701.5 852.5 699.8 853.8 C 698.0 855.0 696.1 856.1 694.2 857.2 C 692.4 858.4 690.6 859.6 688.8 860.8 C 686.9 861.9 685.0 863.0 683.0 864.0 C 681.0 865.0 679.0 866.0 677.0 867.0 C 675.0 868.0 673.0 869.0 671.0 870.0 C 669.0 871.0 666.9 871.9 664.8 872.8 C 662.6 873.6 660.3 874.3 658.0 875.0 C 655.7 875.7 653.3 876.3 651.0 877.0 C 648.7 877.7 646.4 878.4 644.0 879.0 C 641.6 879.6 639.2 880.2 636.8 880.8 C 634.2 881.2 631.6 881.6 629.0 882.0 C 626.4 882.4 623.7 882.7 621.0 883.0 C 618.3 883.3 615.7 883.7 613.0 884.0 C 610.3 884.3 607.6 884.6 604.8 884.8 C 601.9 884.9 598.9 885.0 596.0 885.0 C 593.1 885.0 590.1 884.9 587.2 884.8 C 584.4 884.6 581.7 884.3 579.0 884.0 C 576.3 883.7 573.6 883.4 571.0 883.0 C 568.4 882.6 565.8 882.2 563.2 881.8 C 560.7 881.3 558.2 880.8 555.8 880.2 C 553.2 879.8 550.7 879.3 548.2 878.8 C 545.8 878.2 543.3 877.7 541.0 877.0 C 538.7 876.3 536.5 875.5 534.2 874.8 C 532.0 874.0 529.9 873.1 527.8 872.2 C 525.6 871.4 523.4 870.6 521.2 869.8 C 519.1 868.9 517.0 868.0 515.0 867.0 C 513.0 866.0 511.1 864.9 509.2 863.8 C 507.4 862.6 505.6 861.4 503.8 860.2 C 501.9 859.1 500.1 857.9 498.2 856.8 C 496.4 855.6 494.6 854.4 492.8 853.2 C 490.9 852.1 489.0 851.0 487.2 849.8 C 485.5 848.5 483.7 847.3 482.0 846.0 C 480.3 844.7 478.8 843.2 477.2 841.8 C 475.7 840.3 474.2 838.8 472.8 837.2 C 471.2 835.8 469.8 834.2 468.2 832.8 C 466.8 831.2 465.2 829.8 463.8 828.2 C 462.2 826.8 460.7 825.3 459.2 823.8 C 457.8 822.2 456.3 820.7 455.0 819.0 C 453.7 817.3 452.5 815.5 451.2 813.8 C 450.0 812.0 449.0 810.0 447.8 808.2 C 446.5 806.5 445.2 804.8 444.0 803.0 C 442.8 801.2 441.4 799.6 440.2 797.8 C 439.1 795.9 438.0 794.0 437.0 792.0 C 436.0 790.0 435.0 788.0 434.0 786.0 C 433.0 784.0 432.0 782.0 431.0 780.0 C 430.0 778.0 429.0 776.0 428.0 774.0 C 427.0 772.0 426.1 769.9 425.2 767.8 C 424.4 765.6 423.6 763.4 422.8 761.2 C 421.9 759.1 421.0 757.0 420.2 754.8 C 419.5 752.5 418.7 750.3 418.0 748.0 C 417.3 745.7 416.6 743.4 416.0 741.0 C 415.4 738.6 414.8 736.2 414.2 733.8 C 413.7 731.3 413.2 728.8 412.8 726.2 C 412.2 723.8 411.7 721.3 411.2 718.8 C 410.8 716.2 410.4 713.6 410.0 711.0 C 409.6 708.4 409.3 705.7 409.0 703.0 C 408.7 700.3 408.5 697.5 408.2 694.8 C 408.0 692.0 407.9 689.0 407.8 686.2 C 407.6 683.5 407.5 680.8 407.5 678.0 C 407.5 675.2 407.6 672.5 407.8 669.8 C 407.9 667.0 408.0 664.0 408.2 661.2 C 408.5 658.5 408.7 655.7 409.0 653.0 C 409.3 650.3 409.7 647.7 410.0 645.0 C 410.3 642.3 410.6 639.6 411.0 637.0 C 411.4 634.4 411.8 631.8 412.2 629.2 C 412.8 626.8 413.4 624.4 414.0 622.0 C 414.6 619.6 415.3 617.3 416.0 615.0 C 416.7 612.7 417.3 610.3 418.0 608.0 C 418.7 605.7 419.3 603.3 420.0 601.0 C 420.7 598.7 421.5 596.5 422.2 594.2 C 423.0 592.0 423.9 589.9 424.8 587.8 C 425.6 585.6 426.4 583.4 427.2 581.2 C 428.1 579.1 429.0 577.0 430.0 575.0 C 431.0 573.0 432.0 571.0 433.0 569.0 C 434.0 567.0 435.0 565.0 436.0 563.0 C 437.0 561.0 438.1 559.1 439.2 557.2 C 440.4 555.4 441.6 553.6 442.8 551.8 C 443.9 549.9 445.0 548.0 446.2 546.2 C 447.5 544.5 448.7 542.7 450.0 541.0 C 451.3 539.3 452.7 537.7 454.0 536.0 C 455.3 534.3 456.6 532.6 458.0 531.0 C 459.4 529.4 460.8 527.8 462.2 526.2 C 463.7 524.7 465.2 523.2 466.8 521.8 C 468.2 520.2 469.7 518.7 471.2 517.2 C 472.8 515.8 474.4 514.4 476.0 513.0 C 477.6 511.6 479.3 510.3 481.0 509.0 C 482.7 507.7 484.3 506.3 486.0 505.0 C 487.7 503.7 489.3 502.3 491.0 501.0 C 492.7 499.7 494.5 498.5 496.2 497.2 C 498.0 496.0 499.9 494.9 501.8 493.8 C 503.6 492.6 505.4 491.4 507.2 490.2 C 509.1 489.1 511.0 488.0 513.0 487.0 C 515.0 486.0 517.1 485.1 519.2 484.2 C 521.4 483.4 523.6 482.6 525.8 481.8 C 527.9 480.9 530.1 480.1 532.2 479.2 C 534.4 478.4 536.6 477.6 538.8 476.8 C 540.9 475.9 543.0 475.0 545.2 474.2 C 547.5 473.5 549.8 472.8 552.2 472.2 C 554.7 471.7 557.2 471.2 559.8 470.8 C 562.2 470.2 564.7 469.7 567.2 469.2 C 569.8 468.8 572.4 468.4 575.0 468.0 C 577.6 467.6 580.3 467.3 583.0 467.0 C 585.7 466.7 588.4 466.4 591.2 466.2 C 594.1 466.1 597.1 466.0 600.0 466.0 C 602.9 466.0 605.9 466.1 608.8 466.2 C 611.6 466.4 614.4 466.6 617.2 466.8 C 620.1 466.9 623.0 467.0 625.8 467.2 C 628.5 467.5 631.2 467.8 633.8 468.2 C 636.3 468.7 638.8 469.2 641.2 469.8 C 643.8 470.2 646.3 470.8 648.8 471.2 C 651.2 471.7 653.6 472.3 655.8 472.2 C 657.9 472.2 659.8 471.9 661.5 471.0 C 663.2 470.1 664.5 468.5 665.8 466.8 C 667.0 465.0 667.8 462.8 668.8 460.8 C 669.7 458.7 670.4 456.4 671.2 454.2 C 672.1 452.1 673.0 450.0 673.8 447.8 C 674.5 445.5 675.2 443.2 675.8 440.8 C 676.3 438.3 676.7 435.7 677.0 433.0 C 677.3 430.3 677.7 427.5 677.8 424.8 C 677.8 422.0 677.8 419.1 677.5 416.5 C 677.2 413.9 676.5 411.5 675.8 409.2 C 675.0 407.0 673.9 405.1 672.8 403.2 C 671.6 401.4 670.2 399.8 668.8 398.2 C 667.3 396.7 665.7 395.3 664.2 393.8 C 662.8 392.2 661.4 390.6 660.2 388.8 C 659.1 386.9 658.0 384.9 657.2 382.8 C 656.5 380.6 655.9 378.1 655.8 375.8 C 655.6 373.4 655.9 370.8 656.5 368.5 C 657.1 366.2 658.0 364.1 659.2 362.2 C 660.5 360.4 662.0 358.6 664.0 357.2 C 666.0 355.9 668.6 354.7 671.2 354.0 Z M 587.2 478.2 C 584.4 478.4 581.7 478.7 579.0 479.0 C 576.3 479.3 573.8 479.8 571.2 480.2 C 568.8 480.8 566.4 481.4 564.0 482.0 C 561.6 482.6 559.3 483.3 557.0 484.0 C 554.7 484.7 552.4 485.4 550.2 486.2 C 548.1 487.1 546.0 488.0 544.0 489.0 C 542.0 490.0 540.0 491.0 538.0 492.0 C 536.0 493.0 534.0 494.0 532.0 495.0 C 530.0 496.0 528.1 497.1 526.2 498.2 C 524.4 499.4 522.7 500.7 521.0 502.0 C 519.3 503.3 517.6 504.6 516.0 506.0 C 514.4 507.4 512.8 508.8 511.2 510.2 C 509.8 511.8 508.4 513.4 507.0 515.0 C 505.6 516.6 504.2 518.2 502.8 519.8 C 501.3 521.3 499.8 522.8 498.5 524.5 C 497.2 526.2 496.0 528.0 494.8 529.8 C 493.5 531.5 492.4 533.4 491.2 535.2 C 490.1 537.1 488.9 538.9 487.8 540.8 C 486.6 542.6 485.4 544.4 484.2 546.2 C 483.1 548.1 482.0 550.0 481.0 552.0 C 480.0 554.0 479.1 556.1 478.2 558.2 C 477.4 560.4 476.8 562.8 476.0 565.0 C 475.2 567.2 474.5 569.5 473.8 571.8 C 473.0 574.0 472.0 576.0 471.2 578.2 C 470.5 580.5 469.8 582.8 469.2 585.2 C 468.7 587.7 468.2 590.2 467.8 592.8 C 467.2 595.2 466.8 597.8 466.2 600.2 C 465.8 602.8 465.2 605.2 464.8 607.8 C 464.2 610.2 463.7 612.7 463.2 615.2 C 462.8 617.8 462.3 620.3 462.0 623.0 C 461.7 625.7 461.5 628.5 461.2 631.2 C 461.0 634.0 460.9 636.9 460.8 639.8 C 460.6 642.6 460.4 645.4 460.2 648.2 C 460.1 651.1 460.0 654.0 460.0 657.0 C 460.0 660.0 460.0 663.0 460.0 666.0 C 460.0 669.0 460.0 672.0 460.0 675.0 C 460.0 678.0 460.0 681.0 460.0 684.0 C 460.0 687.0 460.1 689.9 460.2 692.8 C 460.4 695.6 460.7 698.3 461.0 701.0 C 461.3 703.7 461.7 706.3 462.0 709.0 C 462.3 711.7 462.7 714.3 463.0 717.0 C 463.3 719.7 463.7 722.3 464.0 725.0 C 464.3 727.7 464.6 730.4 465.0 733.0 C 465.4 735.6 465.8 738.2 466.2 740.8 C 466.8 743.2 467.4 745.6 468.0 748.0 C 468.6 750.4 469.3 752.7 470.0 755.0 C 470.7 757.3 471.3 759.7 472.0 762.0 C 472.7 764.3 473.5 766.5 474.2 768.8 C 475.0 771.0 475.9 773.1 476.8 775.2 C 477.6 777.4 478.4 779.6 479.2 781.8 C 480.1 783.9 481.0 786.0 482.0 788.0 C 483.0 790.0 484.0 792.0 485.0 794.0 C 486.0 796.0 487.0 798.0 488.0 800.0 C 489.0 802.0 490.0 804.0 491.0 806.0 C 492.0 808.0 493.1 809.9 494.2 811.8 C 495.4 813.6 496.7 815.3 498.0 817.0 C 499.3 818.7 500.7 820.3 502.0 822.0 C 503.3 823.7 504.7 825.3 506.0 827.0 C 507.3 828.7 508.7 830.3 510.0 832.0 C 511.3 833.7 512.6 835.4 514.0 837.0 C 515.4 838.6 516.8 840.2 518.2 841.8 C 519.8 843.2 521.4 844.6 523.0 846.0 C 524.6 847.4 526.3 848.7 528.0 850.0 C 529.7 851.3 531.3 852.7 533.0 854.0 C 534.7 855.3 536.4 856.6 538.2 857.8 C 540.1 858.9 542.0 860.0 544.0 861.0 C 546.0 862.0 548.1 862.9 550.2 863.8 C 552.4 864.6 554.6 865.4 556.8 866.2 C 558.9 867.1 561.0 868.0 563.2 868.8 C 565.5 869.5 567.8 870.2 570.2 870.8 C 572.7 871.3 575.4 871.6 578.0 872.0 C 580.6 872.4 583.3 872.7 586.0 873.0 C 588.7 873.3 591.5 873.6 594.2 873.8 C 597.0 873.9 600.0 873.9 602.8 873.8 C 605.5 873.6 608.3 873.3 611.0 873.0 C 613.7 872.7 616.4 872.4 619.0 872.0 C 621.6 871.6 624.2 871.2 626.8 870.8 C 629.2 870.2 631.7 869.7 634.0 869.0 C 636.3 868.3 638.6 867.6 640.8 866.8 C 642.9 865.9 645.0 865.0 647.0 864.0 C 649.0 863.0 651.0 862.0 653.0 861.0 C 655.0 860.0 656.9 858.9 658.8 857.8 C 660.6 856.6 662.3 855.3 664.0 854.0 C 665.7 852.7 667.3 851.3 669.0 850.0 C 670.7 848.7 672.4 847.4 674.0 846.0 C 675.6 844.6 677.2 843.2 678.8 841.8 C 680.3 840.3 681.8 838.8 683.2 837.2 C 684.8 835.8 686.3 834.3 687.8 832.8 C 689.2 831.2 690.5 829.5 691.8 827.8 C 693.0 826.0 694.1 824.1 695.2 822.2 C 696.4 820.4 697.6 818.6 698.8 816.8 C 699.9 814.9 701.0 813.0 702.0 811.0 C 703.0 809.0 704.0 807.0 705.0 805.0 C 706.0 803.0 707.0 801.0 708.0 799.0 C 709.0 797.0 710.0 795.0 711.0 793.0 C 712.0 791.0 712.9 788.9 713.8 786.8 C 714.6 784.6 715.3 782.3 716.0 780.0 C 716.7 777.7 717.3 775.3 718.0 773.0 C 718.7 770.7 719.3 768.3 720.0 766.0 C 720.7 763.7 721.3 761.3 722.0 759.0 C 722.7 756.7 723.4 754.4 724.0 752.0 C 724.6 749.6 725.2 747.2 725.8 744.8 C 726.2 742.2 726.6 739.6 727.0 737.0 C 727.4 734.4 727.7 731.7 728.0 729.0 C 728.3 726.3 728.7 723.7 729.0 721.0 C 729.3 718.3 729.7 715.7 730.0 713.0 C 730.3 710.3 730.7 707.7 731.0 705.0 C 731.3 702.3 731.5 699.5 731.8 696.8 C 732.0 694.0 732.1 691.1 732.2 688.2 C 732.4 685.4 732.6 682.6 732.8 679.8 C 732.9 676.9 733.0 674.0 733.0 671.0 C 733.0 668.0 733.0 665.0 733.0 662.0 C 733.0 659.0 732.9 656.1 732.8 653.2 C 732.6 650.4 732.2 647.8 732.0 645.0 C 731.8 642.2 731.5 639.5 731.2 636.8 C 731.0 634.0 731.0 631.0 730.8 628.2 C 730.5 625.5 730.2 622.8 729.8 620.2 C 729.3 617.7 728.8 615.2 728.2 612.8 C 727.8 610.2 727.2 607.8 726.8 605.2 C 726.2 602.8 725.9 600.1 725.2 597.8 C 724.6 595.4 724.1 592.9 723.0 591.0 C 721.9 589.1 720.4 587.6 718.8 586.2 C 717.1 584.9 715.1 583.9 713.2 582.8 C 711.4 581.6 709.7 580.3 707.8 579.2 C 705.8 578.2 703.9 577.1 701.8 576.2 C 699.6 575.4 697.3 574.7 695.0 574.0 C 692.7 573.3 690.3 572.7 687.8 572.2 C 685.2 571.8 682.5 571.4 679.8 571.2 C 677.0 571.1 674.1 571.2 671.5 571.5 C 668.9 571.8 666.5 572.5 664.2 573.2 C 662.0 574.0 660.0 575.0 658.0 576.0 C 656.0 577.0 654.0 578.0 652.2 579.2 C 650.5 580.5 648.8 581.8 647.2 583.2 C 645.7 584.7 644.3 586.3 643.0 588.0 C 641.7 589.7 640.3 591.3 639.2 593.2 C 638.2 595.2 637.2 597.2 636.5 599.5 C 635.8 601.8 635.3 604.5 635.0 607.0 C 634.7 609.5 634.5 612.3 634.8 614.8 C 635.0 617.2 635.5 619.5 636.2 621.8 C 637.0 624.0 638.0 626.0 639.0 628.0 C 640.0 630.0 641.0 632.0 642.0 634.0 C 643.0 636.0 644.1 637.9 645.0 640.0 C 645.9 642.1 646.9 644.4 647.2 646.8 C 647.6 649.1 647.7 652.0 647.2 654.2 C 646.8 656.5 645.8 658.8 644.5 660.5 C 643.2 662.2 641.6 663.7 639.8 664.8 C 637.9 665.8 635.7 666.7 633.5 667.0 C 631.3 667.3 628.7 667.1 626.5 666.5 C 624.3 665.9 622.2 664.8 620.5 663.5 C 618.8 662.2 617.5 660.5 616.2 658.8 C 615.0 657.0 614.0 655.0 613.2 652.8 C 612.5 650.5 611.9 648.1 611.5 645.5 C 611.1 642.9 611.0 639.8 611.0 637.0 C 611.0 634.2 611.2 631.2 611.5 628.5 C 611.8 625.8 612.4 623.4 613.0 621.0 C 613.6 618.6 614.3 616.3 615.0 614.0 C 615.7 611.7 616.4 609.4 617.2 607.2 C 618.1 605.1 619.0 603.0 620.0 601.0 C 621.0 599.0 622.1 597.1 623.2 595.2 C 624.4 593.4 625.7 591.7 627.0 590.0 C 628.3 588.3 629.6 586.6 631.0 585.0 C 632.4 583.4 633.8 581.8 635.2 580.2 C 636.8 578.8 638.4 577.4 640.0 576.0 C 641.6 574.6 643.3 573.3 645.0 572.0 C 646.7 570.7 648.4 569.4 650.2 568.2 C 652.1 567.1 654.2 566.2 656.2 565.2 C 658.3 564.3 660.5 563.5 662.8 562.8 C 665.0 562.0 667.1 561.1 669.5 560.5 C 671.9 559.9 674.4 559.4 677.0 559.0 C 679.6 558.6 682.3 558.2 685.0 558.0 C 687.7 557.8 690.3 557.5 693.0 557.5 C 695.7 557.5 698.5 557.9 701.0 558.0 C 703.5 558.1 706.2 558.6 707.8 558.2 C 709.3 557.9 710.3 557.2 710.5 556.0 C 710.7 554.8 709.8 552.8 709.0 551.0 C 708.2 549.2 707.0 547.0 706.0 545.0 C 705.0 543.0 704.0 541.0 703.0 539.0 C 702.0 537.0 700.9 535.1 699.8 533.2 C 698.6 531.4 697.3 529.7 696.0 528.0 C 694.7 526.3 693.3 524.7 692.0 523.0 C 690.7 521.3 689.4 519.6 688.0 518.0 C 686.6 516.4 685.2 514.8 683.8 513.2 C 682.3 511.7 680.8 510.2 679.2 508.8 C 677.8 507.2 676.3 505.6 674.8 504.2 C 673.2 502.9 671.5 501.4 669.8 500.8 C 668.0 500.1 666.1 500.0 664.5 500.5 C 662.9 501.0 661.4 502.6 660.0 504.0 C 658.6 505.4 657.3 507.3 656.0 509.0 C 654.7 510.7 653.5 512.5 652.2 514.2 C 651.0 516.0 650.0 518.0 648.8 519.8 C 647.5 521.5 646.3 523.3 645.0 525.0 C 643.7 526.7 642.4 528.4 641.0 530.0 C 639.6 531.6 638.2 533.2 636.8 534.8 C 635.3 536.3 633.7 537.7 632.2 539.2 C 630.8 540.8 629.4 542.4 628.0 544.0 C 626.6 545.6 625.3 547.3 624.0 549.0 C 622.7 550.7 621.4 552.4 620.0 554.0 C 618.6 555.6 617.2 557.2 615.8 558.8 C 614.3 560.3 612.7 561.7 611.2 563.2 C 609.8 564.8 608.4 566.4 607.0 568.0 C 605.6 569.6 604.2 571.2 602.8 572.8 C 601.3 574.3 599.7 575.7 598.2 577.2 C 596.8 578.8 595.4 580.4 594.0 582.0 C 592.6 583.6 591.2 585.2 589.8 586.8 C 588.3 588.3 586.8 589.8 585.2 591.2 C 583.8 592.8 582.3 594.3 580.8 595.8 C 579.2 597.2 577.6 598.6 576.0 600.0 C 574.4 601.4 572.8 602.8 571.2 604.2 C 569.7 605.7 568.2 607.2 566.8 608.8 C 565.2 610.2 563.8 611.8 562.2 613.2 C 560.8 614.8 559.3 616.3 557.8 617.8 C 556.2 619.2 554.6 620.6 553.0 622.0 C 551.4 623.4 549.6 624.6 548.0 626.0 C 546.4 627.4 544.8 628.8 543.2 630.2 C 541.7 631.7 540.3 633.3 538.8 634.8 C 537.2 636.2 535.6 637.6 534.0 639.0 C 532.4 640.4 530.7 641.7 529.0 643.0 C 527.3 644.3 525.7 645.7 524.0 647.0 C 522.3 648.3 520.7 649.7 519.0 651.0 C 517.3 652.3 515.7 653.7 514.0 655.0 C 512.3 656.3 510.7 657.7 509.0 659.0 C 507.3 660.3 505.5 661.5 503.8 662.8 C 502.0 664.0 500.0 665.0 498.2 666.2 C 496.5 667.5 494.7 669.0 493.0 670.0 C 491.3 671.0 489.4 672.2 488.0 672.5 C 486.6 672.8 485.0 672.2 484.5 671.5 C 484.0 670.8 484.2 669.2 485.0 668.0 C 485.8 666.8 487.5 665.3 489.0 664.0 C 490.5 662.7 492.3 661.3 494.0 660.0 C 495.7 658.7 497.3 657.3 499.0 656.0 C 500.7 654.7 502.3 653.3 504.0 652.0 C 505.7 650.7 507.3 649.3 509.0 648.0 C 510.7 646.7 512.4 645.4 514.0 644.0 C 515.6 642.6 517.2 641.2 518.8 639.8 C 520.3 638.3 521.7 636.7 523.2 635.2 C 524.8 633.8 526.4 632.4 528.0 631.0 C 529.6 629.6 531.4 628.4 533.0 627.0 C 534.6 625.6 536.2 624.2 537.8 622.8 C 539.3 621.3 540.7 619.7 542.2 618.2 C 543.8 616.8 545.4 615.4 547.0 614.0 C 548.6 612.6 550.2 611.2 551.8 609.8 C 553.3 608.3 554.8 606.8 556.2 605.2 C 557.8 603.8 559.2 602.2 560.8 600.8 C 562.2 599.2 563.8 597.8 565.2 596.2 C 566.8 594.8 568.3 593.3 569.8 591.8 C 571.2 590.2 572.6 588.6 574.0 587.0 C 575.4 585.4 576.8 583.8 578.2 582.2 C 579.7 580.7 581.3 579.3 582.8 577.8 C 584.2 576.2 585.6 574.6 587.0 573.0 C 588.4 571.4 589.8 569.8 591.2 568.2 C 592.7 566.7 594.3 565.3 595.8 563.8 C 597.2 562.2 598.6 560.6 600.0 559.0 C 601.4 557.4 602.7 555.7 604.0 554.0 C 605.3 552.3 606.7 550.7 608.0 549.0 C 609.3 547.3 610.7 545.7 612.0 544.0 C 613.3 542.3 614.7 540.7 616.0 539.0 C 617.3 537.3 618.7 535.7 620.0 534.0 C 621.3 532.3 622.7 530.7 624.0 529.0 C 625.3 527.3 626.7 525.7 628.0 524.0 C 629.3 522.3 630.7 520.7 632.0 519.0 C 633.3 517.3 634.7 515.7 636.0 514.0 C 637.3 512.3 638.7 510.7 640.0 509.0 C 641.3 507.3 642.5 505.5 643.8 503.8 C 645.0 502.0 646.3 500.0 647.2 498.2 C 648.2 496.5 649.4 494.6 649.5 493.0 C 649.6 491.4 649.0 490.0 647.8 488.8 C 646.5 487.5 644.3 486.6 642.2 485.8 C 640.2 484.9 637.8 484.2 635.5 483.5 C 633.2 482.8 630.7 482.3 628.2 481.8 C 625.8 481.2 623.3 480.7 620.8 480.2 C 618.2 479.8 615.7 479.3 613.0 479.0 C 610.3 478.7 607.6 478.4 604.8 478.2 C 601.9 478.1 598.9 478.0 596.0 478.0 C 593.1 478.0 590.1 478.1 587.2 478.2 Z" fill="#EFEAE0" fill-rule="evenodd"/>
</svg>
