<svg xmlns="http://www.w3.org/2000/svg" viewBox="0 0 1024 1024" width="512" height="512"><rect width="1024" height="1024" fill="#1D4354"/><path transform="translate(124.400,818.166) scale(0.9435,-0.9435)" fill="#F3E8D8" d="M306 -12Q247 -12 200.5 12.0Q154 36 123.0 77.5Q92 119 80.5 171.0Q69 223 80 278Q92 333 126.5 375.0Q161 417 206.5 441.0Q252 465 296 465Q321 465 343.0 457.0Q365 449 382 429L335 386Q318 418 292.5 428.5Q267 439 246 439Q219 439 194.5 421.5Q170 404 152.5 375.0Q135 346 126 310Q114 248 128.0 195.5Q142 143 173.5 104.0Q205 65 248.0 43.5Q291 22 338 22Q403 22 453.0 54.0Q503 86 533.5 149.5Q564 213 568 309L584 303Q576 197 538.5 127.0Q501 57 441.0 22.5Q381 -12 306 -12ZM115 196 106 205Q142 235 186.0 269.0Q230 303 275.0 339.0Q320 375 357.5 412.0Q395 449 418.0 485.5Q441 522 441 557Q441 576 436.0 586.5Q431 597 424.0 603.5Q417 610 412.0 616.0Q407 622 407 633Q407 646 414.5 653.5Q422 661 434 661Q454 661 468.0 642.5Q482 624 482 591Q482 549 456.5 506.0Q431 463 389.5 421.0Q348 379 299.0 339.0Q250 299 201.5 263.0Q153 227 115 196ZM394 234Q384 234 377.0 240.5Q370 247 370 264Q370 290 385.5 312.0Q401 334 426.0 347.5Q451 361 478 361Q504 361 532.0 349.5Q560 338 588.0 323.0Q616 308 642.5 296.5Q669 285 691 285Q705 285 712.5 290.5Q720 296 720 303Q720 313 715.5 320.5Q711 328 706.0 336.0Q701 344 701 354Q701 365 707.0 370.0Q713 375 724 375Q734 375 740.5 369.5Q747 364 747 346Q747 322 734.5 300.0Q722 278 701.0 264.0Q680 250 654 250Q629 250 601.0 262.0Q573 274 543.5 290.0Q514 306 486.0 318.0Q458 330 433 330Q418 330 410.0 323.5Q402 317 402 309Q402 299 405.5 290.5Q409 282 412.5 273.5Q416 265 416 256Q416 249 411.5 241.5Q407 234 394 234Z"/></svg>