<svg xmlns="http://www.w3.org/2000/svg" viewBox="0 0 1118 1118" width="512" height="512">
  <rect width="1118" height="1118" fill="#1D4354"/>
  <path d="M 802.8 176.8 C 806.5 176.4 810.5 176.6 814.2 177.1 C 818.0 177.7 821.7 178.7 825.1 179.9 C 828.4 181.2 831.5 182.8 834.4 184.6 C 837.3 186.3 840.0 188.3 842.5 190.5 C 845.0 192.7 847.3 195.0 849.5 197.5 C 851.7 200.0 853.7 202.7 855.5 205.5 C 857.3 208.3 859.0 211.3 860.6 214.4 C 862.1 217.6 863.5 220.8 864.8 224.2 C 866.1 227.6 867.2 231.1 868.2 234.8 C 869.1 238.5 869.9 242.4 870.5 246.5 C 871.1 250.6 871.5 254.8 871.9 259.1 C 872.2 263.4 872.5 267.9 872.6 272.3 C 872.7 276.7 872.7 281.2 872.5 285.6 C 872.3 290.0 872.0 294.4 871.6 298.6 C 871.1 302.8 870.5 306.9 869.9 310.9 C 869.2 314.9 868.5 318.8 867.6 322.6 C 866.8 326.5 865.9 330.2 864.9 333.9 C 863.9 337.5 862.8 341.1 861.6 344.6 C 860.5 348.1 859.2 351.5 857.9 354.9 C 856.6 358.2 855.1 361.5 853.7 364.7 C 852.2 367.9 850.8 371.1 849.2 374.2 C 847.7 377.4 846.2 380.6 844.6 383.6 C 843.0 386.7 841.3 389.7 839.6 392.6 C 837.9 395.6 836.1 398.4 834.3 401.3 C 832.5 404.2 830.8 407.1 829.0 410.0 C 827.2 412.9 825.5 415.8 823.6 418.6 C 821.8 421.4 819.9 424.2 817.9 426.9 C 816.0 429.7 814.0 432.3 812.0 435.0 C 810.0 437.7 808.0 440.3 806.0 443.0 C 804.0 445.7 802.0 448.3 800.0 451.0 C 798.0 453.7 796.0 456.3 793.9 458.9 C 791.9 461.6 789.8 464.1 787.7 466.7 C 785.6 469.2 783.4 471.7 781.3 474.3 C 779.2 476.9 777.1 479.4 775.3 482.2 C 773.6 484.9 771.8 487.8 770.9 490.8 C 769.9 493.7 769.4 496.9 769.5 500.1 C 769.6 503.3 770.4 506.7 771.4 510.0 C 772.3 513.3 773.7 516.7 775.2 519.8 C 776.8 522.8 778.5 525.8 780.6 528.4 C 782.8 530.9 785.2 533.1 788.0 535.0 C 790.8 536.9 794.0 538.4 797.1 539.9 C 800.3 541.4 803.7 542.7 806.9 544.1 C 810.2 545.5 813.5 546.9 816.7 548.3 C 819.9 549.8 823.1 551.2 826.2 552.8 C 829.4 554.2 832.6 555.8 835.7 557.3 C 838.8 558.9 841.9 560.4 845.0 562.0 C 848.1 563.6 851.2 565.1 854.3 566.7 C 857.4 568.2 860.6 569.8 863.7 571.3 C 866.8 572.9 869.9 574.5 872.9 576.1 C 876.0 577.7 879.0 579.3 882.1 580.9 C 885.1 582.5 888.2 584.1 891.3 585.7 C 894.4 587.2 897.6 588.7 900.8 590.2 C 903.9 591.8 907.1 593.2 910.2 594.8 C 913.4 596.2 916.6 597.8 919.8 599.2 C 922.9 600.7 926.1 602.2 929.3 603.7 C 932.5 605.1 935.8 606.6 939.1 607.9 C 942.3 609.3 945.7 610.7 949.0 612.0 C 952.3 613.3 955.7 614.7 959.1 615.9 C 962.5 617.2 965.9 618.5 969.4 619.6 C 972.9 620.8 976.4 621.9 980.1 622.9 C 983.8 623.9 987.6 624.8 991.4 625.6 C 995.3 626.3 999.3 627.0 1003.4 627.4 C 1007.4 627.7 1011.6 627.9 1015.6 627.8 C 1019.6 627.6 1023.7 627.1 1027.4 626.3 C 1031.2 625.5 1034.8 624.5 1038.1 623.1 C 1041.3 621.6 1044.4 620.0 1046.8 617.8 C 1049.3 615.6 1051.4 613.0 1052.8 610.0 C 1054.1 607.0 1054.9 603.3 1055.1 599.8 C 1055.3 596.3 1054.7 592.4 1053.9 588.8 C 1053.2 585.3 1051.8 581.8 1050.5 578.5 C 1049.2 575.2 1047.5 572.2 1045.9 569.1 C 1044.4 566.0 1042.6 563.0 1041.1 559.9 C 1039.5 556.8 1037.8 553.8 1036.5 550.5 C 1035.2 547.2 1033.8 543.8 1033.1 540.2 C 1032.3 536.6 1031.7 532.7 1031.8 529.1 C 1031.9 525.4 1032.5 521.6 1033.6 518.4 C 1034.8 515.2 1036.6 512.2 1038.8 509.8 C 1040.9 507.3 1043.8 505.4 1046.8 503.9 C 1049.9 502.5 1053.5 501.5 1057.1 501.1 C 1060.6 500.6 1064.7 500.7 1068.2 501.2 C 1071.8 501.8 1075.5 502.9 1078.5 504.5 C 1081.5 506.1 1084.1 508.2 1086.2 510.8 C 1088.4 513.3 1089.9 516.4 1091.2 519.8 C 1092.4 523.2 1093.2 527.1 1093.8 531.1 C 1094.3 535.1 1094.4 539.5 1094.4 543.8 C 1094.3 548.0 1094.0 552.4 1093.5 556.5 C 1093.0 560.6 1092.3 564.7 1091.5 568.5 C 1090.7 572.3 1089.6 576.0 1088.5 579.5 C 1087.4 583.0 1086.0 586.3 1084.6 589.6 C 1083.2 592.9 1081.7 596.1 1080.2 599.2 C 1078.6 602.3 1077.0 605.4 1075.3 608.3 C 1073.6 611.3 1071.8 614.1 1069.9 616.9 C 1068.0 619.6 1066.0 622.3 1063.9 624.9 C 1061.9 627.6 1059.8 630.1 1057.6 632.6 C 1055.4 635.1 1053.2 637.6 1050.9 639.9 C 1048.5 642.2 1046.1 644.4 1043.6 646.6 C 1041.0 648.7 1038.3 650.7 1035.6 652.6 C 1032.8 654.5 1029.9 656.2 1026.9 657.9 C 1024.0 659.7 1021.0 661.3 1017.9 662.9 C 1014.9 664.5 1011.8 666.1 1008.5 667.5 C 1005.2 668.9 1001.8 670.1 998.2 671.2 C 994.6 672.2 990.7 673.1 986.8 673.8 C 982.9 674.5 978.8 675.1 974.6 675.5 C 970.5 675.9 966.2 676.1 961.9 676.2 C 957.7 676.2 953.3 676.1 949.1 675.8 C 944.8 675.5 940.5 675.1 936.4 674.6 C 932.3 674.0 928.3 673.3 924.5 672.5 C 920.7 671.7 917.0 670.7 913.4 669.6 C 909.8 668.6 906.3 667.4 902.8 666.2 C 899.4 665.0 896.0 663.7 892.6 662.4 C 889.3 661.1 886.0 659.6 882.8 658.2 C 879.5 656.9 876.2 655.4 873.0 654.0 C 869.8 652.6 866.5 651.1 863.3 649.7 C 860.1 648.2 856.9 646.8 853.8 645.2 C 850.6 643.8 847.4 642.2 844.3 640.7 C 841.2 639.1 838.1 637.6 835.0 636.0 C 831.9 634.4 828.8 632.9 825.7 631.3 C 822.6 629.8 819.4 628.1 816.3 626.7 C 813.3 625.2 810.1 623.5 807.4 622.6 C 804.7 621.8 802.1 620.9 800.1 621.6 C 798.2 622.3 796.8 624.1 795.8 626.7 C 794.8 629.3 794.6 633.4 794.2 637.4 C 793.8 641.4 793.8 646.2 793.6 650.6 C 793.4 655.0 793.2 659.5 792.9 663.9 C 792.5 668.2 792.1 672.4 791.6 676.6 C 791.1 680.8 790.6 684.9 790.0 689.0 C 789.4 693.1 788.9 697.2 788.2 701.2 C 787.6 705.3 787.0 709.4 786.3 713.3 C 785.6 717.3 784.8 721.1 783.9 724.9 C 783.1 728.8 782.2 732.5 781.3 736.3 C 780.4 740.1 779.6 743.9 778.7 747.7 C 777.8 751.4 776.9 755.2 775.9 758.9 C 774.9 762.5 773.8 766.1 772.7 769.7 C 771.6 773.2 770.4 776.8 769.2 780.2 C 768.1 783.7 766.9 787.2 765.6 790.6 C 764.4 794.0 763.0 797.4 761.7 800.7 C 760.3 804.0 758.9 807.3 757.6 810.6 C 756.2 813.8 754.8 817.2 753.4 820.4 C 751.9 823.6 750.4 826.8 748.9 829.9 C 747.3 833.0 745.7 836.0 744.1 839.1 C 742.5 842.1 740.9 845.2 739.2 848.2 C 737.6 851.3 736.1 854.4 734.4 857.4 C 732.7 860.4 731.0 863.3 729.2 866.2 C 727.4 869.1 725.6 871.9 723.8 874.8 C 721.9 877.6 720.1 880.4 718.2 883.2 C 716.4 886.1 714.6 888.9 712.7 891.7 C 710.8 894.5 708.9 897.2 706.9 899.9 C 705.0 902.7 703.0 905.3 701.0 908.0 C 699.0 910.7 697.0 913.3 694.9 915.9 C 692.9 918.6 690.8 921.1 688.7 923.7 C 686.6 926.2 684.4 928.8 682.2 931.2 C 680.1 933.8 677.9 936.2 675.7 938.7 C 673.5 941.1 671.2 943.6 668.9 945.9 C 666.6 948.3 664.3 950.6 661.9 952.9 C 659.6 955.2 657.1 957.5 654.7 959.7 C 652.2 961.9 649.8 964.1 647.2 966.2 C 644.8 968.4 642.2 970.6 639.7 972.7 C 637.1 974.8 634.6 976.9 631.9 978.9 C 629.3 981.0 626.7 983.0 624.0 985.0 C 621.3 987.0 618.7 989.0 615.9 990.9 C 613.2 992.9 610.5 994.8 607.7 996.7 C 604.9 998.6 602.1 1000.4 599.2 1002.2 C 596.4 1004.1 593.6 1005.9 590.7 1007.7 C 587.8 1009.5 584.9 1011.2 581.9 1012.9 C 579.0 1014.6 576.0 1016.3 572.9 1017.9 C 569.9 1019.6 566.8 1021.1 563.6 1022.6 C 560.5 1024.1 557.2 1025.5 553.9 1026.9 C 550.7 1028.3 547.3 1029.7 544.0 1031.0 C 540.7 1032.3 537.3 1033.7 533.9 1034.9 C 530.5 1036.2 527.1 1037.5 523.6 1038.6 C 520.1 1039.8 516.6 1040.9 512.9 1041.9 C 509.3 1043.0 505.7 1044.0 501.9 1044.9 C 498.2 1045.9 494.5 1046.8 490.6 1047.6 C 486.8 1048.4 482.9 1049.2 478.9 1049.9 C 474.9 1050.5 470.8 1051.1 466.6 1051.6 C 462.5 1052.1 458.2 1052.6 453.9 1052.9 C 449.7 1053.3 445.3 1053.6 441.0 1053.9 C 436.7 1054.1 432.3 1054.3 427.9 1054.3 C 423.6 1054.4 419.1 1054.3 414.8 1054.1 C 410.4 1054.0 406.0 1053.7 401.7 1053.3 C 397.4 1052.9 393.2 1052.4 389.1 1051.9 C 385.0 1051.3 381.0 1050.6 377.1 1049.9 C 373.1 1049.2 369.2 1048.5 365.4 1047.6 C 361.6 1046.8 357.8 1045.9 354.1 1044.9 C 350.5 1043.9 346.9 1042.8 343.4 1041.6 C 340.0 1040.4 336.6 1039.0 333.4 1037.6 C 330.1 1036.2 326.9 1034.7 323.8 1033.2 C 320.7 1031.6 317.6 1030.0 314.6 1028.4 C 311.6 1026.7 308.7 1025.0 305.8 1023.2 C 302.9 1021.4 300.1 1019.6 297.3 1017.7 C 294.5 1015.8 291.8 1013.9 289.1 1011.9 C 286.5 1009.9 283.9 1007.8 281.4 1005.6 C 278.9 1003.5 276.4 1001.2 274.1 998.9 C 271.7 996.7 269.4 994.3 267.1 991.9 C 264.8 989.6 262.5 987.1 260.3 984.7 C 258.1 982.2 255.9 979.7 253.8 977.2 C 251.7 974.6 249.6 972.0 247.6 969.4 C 245.6 966.7 243.7 964.0 241.8 961.2 C 239.9 958.4 238.1 955.6 236.3 952.7 C 234.5 949.8 232.8 946.9 231.1 943.9 C 229.5 940.9 227.9 937.8 226.3 934.7 C 224.8 931.6 223.2 928.4 221.8 925.2 C 220.3 922.1 218.8 918.9 217.4 915.6 C 216.0 912.3 214.7 909.0 213.4 905.6 C 212.2 902.1 211.1 898.5 210.1 894.9 C 209.0 891.3 208.0 887.7 207.0 884.0 C 206.0 880.3 205.0 876.7 204.1 872.9 C 203.1 869.2 202.2 865.5 201.4 861.6 C 200.6 857.8 199.8 853.9 199.1 849.9 C 198.5 845.9 197.9 841.8 197.4 837.6 C 196.9 833.5 196.5 829.2 196.1 824.9 C 195.8 820.5 195.6 816.1 195.4 811.6 C 195.2 807.1 195.1 802.5 195.1 797.9 C 195.0 793.3 195.0 788.7 195.1 784.1 C 195.1 779.5 195.2 774.9 195.4 770.4 C 195.5 765.9 195.8 761.4 196.1 757.1 C 196.3 752.7 196.7 748.3 197.1 744.1 C 197.4 739.8 197.9 735.5 198.4 731.4 C 198.9 727.2 199.5 723.1 200.1 719.1 C 200.7 715.0 201.3 711.0 202.0 707.0 C 202.7 703.0 203.3 699.0 204.1 695.1 C 204.8 691.1 205.5 687.2 206.4 683.4 C 207.2 679.5 208.1 675.8 209.1 672.1 C 210.0 668.3 211.0 664.7 212.1 661.1 C 213.1 657.4 214.2 653.9 215.4 650.4 C 216.5 646.9 217.8 643.4 219.0 640.0 C 220.2 636.6 221.5 633.1 222.7 629.7 C 223.9 626.2 225.1 622.8 226.4 619.4 C 227.7 616.0 229.0 612.6 230.4 609.4 C 231.8 606.1 233.3 602.9 234.8 599.8 C 236.2 596.6 237.8 593.4 239.3 590.3 C 240.9 587.2 242.4 584.1 244.1 581.1 C 245.7 578.0 247.3 575.0 249.0 572.0 C 250.7 569.0 252.3 566.0 254.0 563.0 C 255.7 560.0 257.3 557.0 259.1 554.1 C 260.8 551.1 262.6 548.2 264.4 545.4 C 266.2 542.5 268.1 539.8 270.0 537.0 C 271.9 534.2 273.8 531.5 275.7 528.7 C 277.6 525.9 279.4 523.1 281.3 520.3 C 283.2 517.6 285.1 514.8 287.1 512.1 C 289.1 509.5 291.2 506.9 293.3 504.3 C 295.4 501.8 297.6 499.2 299.8 496.8 C 301.9 494.2 304.1 491.8 306.3 489.3 C 308.5 486.9 310.8 484.4 313.1 482.1 C 315.3 479.7 317.7 477.3 320.0 475.0 C 322.3 472.7 324.7 470.3 327.0 468.0 C 329.3 465.7 331.7 463.3 334.1 461.1 C 336.5 458.8 338.9 456.5 341.4 454.4 C 343.9 452.2 346.5 450.1 349.1 448.1 C 351.7 446.0 354.3 444.0 357.0 442.0 C 359.7 440.0 362.3 438.0 365.0 436.0 C 367.7 434.0 370.3 432.0 373.1 430.1 C 375.8 428.1 378.6 426.2 381.4 424.4 C 384.2 422.5 387.1 420.8 390.0 419.0 C 392.9 417.2 395.8 415.5 398.8 413.8 C 401.7 412.0 404.6 410.3 407.6 408.6 C 410.6 407.0 413.7 405.4 416.8 403.8 C 419.9 402.3 423.1 400.8 426.3 399.3 C 429.5 397.9 432.8 396.4 436.1 395.1 C 439.3 393.7 442.7 392.3 446.0 391.0 C 449.3 389.7 452.7 388.3 456.1 387.1 C 459.5 385.8 462.9 384.5 466.4 383.4 C 469.9 382.2 473.5 381.1 477.1 380.1 C 480.8 379.1 484.5 378.2 488.4 377.4 C 492.2 376.5 496.1 375.8 500.1 375.1 C 504.1 374.5 508.2 373.9 512.4 373.4 C 516.5 372.9 520.8 372.4 525.1 372.1 C 529.3 371.7 533.7 371.3 538.1 371.1 C 542.4 370.8 546.9 370.6 551.3 370.4 C 555.8 370.3 560.3 370.3 564.8 370.4 C 569.2 370.4 573.8 370.6 578.2 370.8 C 582.6 371.0 587.0 371.3 591.3 371.7 C 595.6 372.1 599.8 372.6 603.8 373.2 C 607.9 373.8 611.8 374.6 615.6 375.4 C 619.5 376.2 623.2 377.1 626.9 378.1 C 630.7 379.0 634.3 380.0 637.9 381.1 C 641.5 382.1 645.1 383.2 648.6 384.4 C 652.0 385.7 655.3 387.0 658.6 388.4 C 661.8 389.9 664.9 391.5 667.9 393.1 C 671.0 394.7 674.0 396.3 676.9 398.1 C 679.9 399.8 682.8 401.5 685.6 403.4 C 688.4 405.2 691.2 407.1 693.9 409.1 C 696.6 411.1 699.1 413.2 701.7 415.3 C 704.2 417.4 706.8 419.6 709.2 421.8 C 711.7 423.9 714.2 426.1 716.6 428.4 C 719.0 430.6 721.4 433.0 723.6 435.4 C 725.9 437.8 728.1 440.2 730.2 442.8 C 732.4 445.2 734.5 447.9 736.6 450.4 C 738.7 452.9 740.7 455.7 742.8 457.8 C 744.8 459.8 746.8 461.8 748.9 462.6 C 751.1 463.3 753.3 463.1 755.4 462.1 C 757.6 461.1 759.8 458.8 761.9 456.6 C 764.0 454.4 766.0 451.6 767.9 448.9 C 769.9 446.3 771.8 443.5 773.7 440.7 C 775.6 437.9 777.4 435.1 779.2 432.2 C 781.1 429.4 782.9 426.6 784.7 423.7 C 786.5 420.8 788.2 417.9 789.9 414.9 C 791.5 411.9 793.1 408.8 794.7 405.7 C 796.2 402.6 797.8 399.4 799.2 396.2 C 800.6 393.0 802.0 389.7 803.3 386.3 C 804.6 382.9 805.8 379.4 806.9 375.9 C 808.0 372.3 809.0 368.7 809.9 364.9 C 810.9 361.2 811.8 357.5 812.6 353.6 C 813.3 349.7 814.0 345.7 814.5 341.5 C 815.0 337.3 815.3 333.0 815.5 328.6 C 815.7 324.3 815.7 319.7 815.4 315.4 C 815.2 311.1 814.8 306.9 814.1 302.9 C 813.5 298.9 812.5 295.1 811.4 291.6 C 810.3 288.0 809.0 284.7 807.5 281.5 C 806.0 278.3 804.3 275.3 802.5 272.5 C 800.7 269.7 798.6 267.0 796.6 264.4 C 794.5 261.9 792.2 259.5 790.0 257.0 C 787.8 254.5 785.5 252.2 783.4 249.6 C 781.2 247.1 779.1 244.6 777.2 241.8 C 775.4 238.9 773.6 236.0 772.3 232.8 C 771.0 229.6 770.0 226.1 769.4 222.4 C 768.9 218.8 768.8 214.8 769.1 211.1 C 769.4 207.4 770.2 203.6 771.4 200.2 C 772.5 196.9 774.1 193.8 776.1 191.1 C 778.0 188.4 780.3 186.0 783.0 184.0 C 785.7 182.0 788.7 180.3 792.0 179.1 C 795.3 177.9 799.0 177.1 802.8 176.8 Z M 504.6 394.5 C 499.8 394.7 495.1 395.0 490.7 395.4 C 486.3 395.9 482.2 396.5 478.1 397.1 C 474.0 397.7 470.0 398.3 466.1 399.1 C 462.1 399.8 458.2 400.5 454.4 401.4 C 450.7 402.3 447.0 403.3 443.4 404.4 C 439.9 405.5 436.5 406.8 433.1 408.1 C 429.7 409.3 426.3 410.7 423.1 412.1 C 419.8 413.4 416.5 414.9 413.4 416.4 C 410.2 417.9 407.1 419.5 404.1 421.1 C 401.1 422.8 398.2 424.6 395.4 426.4 C 392.5 428.2 389.8 430.1 387.1 432.1 C 384.3 434.0 381.7 436.0 379.0 438.0 C 376.3 440.0 373.7 442.0 371.1 444.1 C 368.5 446.1 365.9 448.2 363.4 450.4 C 360.9 452.5 358.4 454.8 356.1 457.1 C 353.7 459.3 351.4 461.7 349.1 464.1 C 346.8 466.4 344.5 468.9 342.3 471.3 C 340.1 473.8 337.9 476.2 335.8 478.8 C 333.6 481.2 331.4 483.8 329.3 486.3 C 327.2 488.9 325.1 491.5 323.1 494.1 C 321.1 496.8 319.2 499.5 317.3 502.3 C 315.4 505.1 313.6 507.9 311.8 510.8 C 309.9 513.6 308.1 516.4 306.4 519.4 C 304.6 522.3 303.0 525.3 301.4 528.4 C 299.8 531.4 298.2 534.6 296.7 537.7 C 295.1 540.8 293.6 543.9 292.0 547.0 C 290.4 550.1 288.9 553.2 287.4 556.4 C 285.9 559.6 284.5 562.8 283.1 566.1 C 281.8 569.4 280.5 572.9 279.3 576.3 C 278.1 579.8 276.9 583.2 275.8 586.8 C 274.6 590.2 273.4 593.8 272.3 597.3 C 271.2 600.9 270.1 604.4 269.1 608.1 C 268.0 611.7 267.0 615.3 266.0 619.0 C 265.0 622.7 264.0 626.3 263.1 630.1 C 262.1 633.8 261.2 637.5 260.4 641.4 C 259.5 645.2 258.8 649.1 258.1 653.1 C 257.3 657.0 256.7 661.0 256.0 665.0 C 255.3 669.0 254.7 673.0 254.0 677.0 C 253.3 681.0 252.7 685.0 252.1 689.1 C 251.5 693.1 250.9 697.2 250.4 701.4 C 249.9 705.5 249.4 709.8 249.1 714.1 C 248.7 718.3 248.3 722.7 248.1 727.1 C 247.8 731.4 247.5 735.9 247.4 740.4 C 247.2 744.9 247.1 749.5 247.1 754.0 C 247.1 758.5 247.2 763.1 247.4 767.6 C 247.5 772.1 247.8 776.5 248.1 780.9 C 248.5 785.2 248.9 789.4 249.4 793.6 C 249.9 797.8 250.4 801.9 251.1 805.9 C 251.7 810.0 252.4 814.0 253.1 817.9 C 253.8 821.9 254.5 825.8 255.3 829.7 C 256.1 833.6 256.9 837.4 257.8 841.2 C 258.6 845.1 259.4 848.9 260.4 852.6 C 261.3 856.4 262.3 860.0 263.4 863.6 C 264.4 867.2 265.6 870.8 266.8 874.2 C 267.9 877.8 269.1 881.2 270.4 884.6 C 271.6 888.0 273.0 891.4 274.4 894.6 C 275.8 897.9 277.3 901.1 278.8 904.2 C 280.2 907.4 281.8 910.6 283.3 913.7 C 284.9 916.8 286.4 919.9 288.1 922.9 C 289.8 925.9 291.6 928.8 293.4 931.6 C 295.2 934.5 297.1 937.2 299.1 939.9 C 301.0 942.7 303.0 945.3 305.1 947.9 C 307.1 950.6 309.2 953.1 311.3 955.7 C 313.4 958.2 315.6 960.7 317.8 963.2 C 320.0 965.6 322.3 968.0 324.6 970.4 C 327.0 972.7 329.4 975.0 331.8 977.2 C 334.3 979.4 336.8 981.6 339.3 983.7 C 341.9 985.8 344.4 987.9 347.1 989.9 C 349.8 991.9 352.6 993.8 355.4 995.6 C 358.2 997.5 361.1 999.2 364.1 1000.9 C 367.0 1002.7 370.0 1004.3 373.1 1005.9 C 376.1 1007.5 379.2 1009.1 382.4 1010.6 C 385.7 1012.0 389.0 1013.4 392.4 1014.6 C 395.8 1015.9 399.3 1017.1 402.8 1018.2 C 406.4 1019.3 409.9 1020.4 413.6 1021.4 C 417.3 1022.4 421.0 1023.3 424.9 1024.1 C 428.7 1024.9 432.6 1025.7 436.7 1026.3 C 440.7 1026.9 444.9 1027.4 449.2 1027.8 C 453.5 1028.2 457.9 1028.4 462.3 1028.6 C 466.7 1028.7 471.3 1028.7 475.7 1028.6 C 480.1 1028.4 484.6 1028.2 488.9 1027.9 C 493.2 1027.5 497.4 1027.1 501.6 1026.6 C 505.7 1026.0 509.7 1025.3 513.6 1024.6 C 517.5 1023.8 521.2 1022.9 524.9 1021.9 C 528.7 1021.0 532.3 1020.0 535.9 1018.9 C 539.6 1017.9 543.1 1016.8 546.6 1015.6 C 550.1 1014.5 553.6 1013.2 556.9 1011.9 C 560.3 1010.7 563.7 1009.3 566.9 1007.9 C 570.2 1006.6 573.5 1005.1 576.6 1003.6 C 579.8 1002.1 582.9 1000.5 585.9 998.9 C 588.9 997.2 591.8 995.4 594.6 993.6 C 597.5 991.8 600.2 989.9 602.9 987.9 C 605.7 986.0 608.3 984.0 610.9 981.9 C 613.6 979.9 616.1 977.8 618.7 975.7 C 621.2 973.6 623.8 971.4 626.2 969.2 C 628.7 967.1 631.2 964.9 633.6 962.6 C 636.0 960.4 638.4 958.0 640.6 955.6 C 642.9 953.2 645.1 950.7 647.2 948.2 C 649.4 945.8 651.6 943.2 653.7 940.7 C 655.8 938.1 657.9 935.6 659.9 932.9 C 662.0 930.3 664.0 927.7 665.9 924.9 C 667.9 922.2 669.8 919.5 671.6 916.6 C 673.5 913.8 675.2 910.9 676.9 907.9 C 678.7 905.0 680.3 902.0 682.0 899.0 C 683.7 896.0 685.3 893.0 686.9 889.9 C 688.6 886.9 690.1 883.8 691.7 880.7 C 693.2 877.6 694.8 874.4 696.2 871.2 C 697.8 868.1 699.2 864.9 700.7 861.7 C 702.1 858.5 703.5 855.2 704.9 851.9 C 706.2 848.5 707.5 845.1 708.7 841.7 C 709.9 838.2 711.1 834.8 712.2 831.2 C 713.4 827.8 714.6 824.2 715.7 820.7 C 716.8 817.1 717.9 813.6 718.9 809.9 C 720.0 806.3 721.0 802.7 722.0 799.0 C 723.0 795.3 724.0 791.7 724.9 787.9 C 725.9 784.2 726.8 780.5 727.6 776.6 C 728.5 772.8 729.2 768.9 729.9 764.9 C 730.7 761.0 731.3 757.0 732.0 753.0 C 732.7 749.0 733.3 745.0 734.0 741.0 C 734.7 737.0 735.3 733.0 735.9 728.9 C 736.5 724.9 737.1 720.8 737.6 716.6 C 738.1 712.5 738.6 708.2 738.9 703.9 C 739.3 699.7 739.7 695.3 739.9 690.9 C 740.2 686.6 740.5 682.1 740.6 677.6 C 740.8 673.1 740.9 668.5 740.9 664.0 C 740.9 659.5 740.8 654.9 740.6 650.4 C 740.5 645.9 740.2 641.4 739.9 637.1 C 739.7 632.7 739.3 628.3 738.9 624.1 C 738.6 619.8 738.2 615.5 737.6 611.4 C 737.1 607.3 736.5 603.1 735.5 599.5 C 734.5 595.9 733.2 592.5 731.4 589.6 C 729.5 586.8 727.1 584.5 724.5 582.5 C 721.9 580.5 718.7 578.9 715.6 577.4 C 712.4 576.0 709.0 574.6 705.6 573.8 C 702.2 573.0 698.5 572.4 695.2 572.6 C 691.8 572.7 688.5 573.6 685.5 574.9 C 682.5 576.1 679.8 578.2 677.2 580.2 C 674.6 582.2 672.2 584.5 669.7 586.7 C 667.2 588.9 664.7 591.1 662.2 593.2 C 659.8 595.4 657.2 597.6 654.8 599.8 C 652.2 601.9 649.8 604.1 647.2 606.2 C 644.8 608.4 642.2 610.6 639.8 612.8 C 637.2 614.9 634.7 617.0 632.2 619.2 C 629.8 621.5 627.2 623.6 625.1 626.0 C 623.1 628.4 621.0 630.9 619.9 633.8 C 618.7 636.6 618.3 639.7 618.2 643.1 C 618.1 646.4 619.0 650.0 619.4 653.8 C 619.8 657.5 620.5 661.5 620.6 665.3 C 620.6 669.1 620.3 673.2 619.5 676.8 C 618.7 680.3 617.3 683.7 615.5 686.5 C 613.7 689.3 611.3 691.7 608.6 693.6 C 605.8 695.4 602.3 696.9 599.1 697.8 C 595.9 698.6 592.0 699.0 589.4 698.8 C 586.9 698.6 584.8 697.7 583.7 696.6 C 582.6 695.4 583.1 693.6 582.8 691.8 C 582.4 689.9 582.7 687.8 581.8 685.7 C 580.9 683.6 579.2 681.4 577.2 679.3 C 575.2 677.2 572.4 675.1 570.0 673.0 C 567.6 670.9 564.8 668.8 562.9 666.6 C 560.9 664.4 559.1 662.2 558.2 659.7 C 557.2 657.2 557.1 654.5 557.2 651.4 C 557.3 648.4 558.1 644.9 558.8 641.4 C 559.5 637.9 560.4 634.0 561.4 630.4 C 562.3 626.7 563.3 623.0 564.5 619.5 C 565.7 616.0 567.0 612.7 568.4 609.4 C 569.9 606.2 571.5 603.1 573.1 600.1 C 574.8 597.1 576.6 594.2 578.4 591.4 C 580.3 588.6 582.3 586.0 584.4 583.4 C 586.4 580.8 588.6 578.3 590.8 575.8 C 593.0 573.4 595.3 571.0 597.6 568.6 C 600.0 566.3 602.4 564.0 604.8 561.8 C 607.3 559.6 609.8 557.4 612.4 555.4 C 615.0 553.3 617.7 551.3 620.4 549.4 C 623.2 547.6 626.1 545.8 629.1 544.1 C 632.0 542.3 635.0 540.7 638.1 539.1 C 641.1 537.4 644.2 535.9 647.4 534.4 C 650.6 532.9 653.8 531.4 657.1 530.1 C 660.5 528.8 663.9 527.6 667.4 526.4 C 671.0 525.3 674.7 524.4 678.4 523.4 C 682.2 522.5 686.3 521.8 689.8 520.8 C 693.3 519.8 697.2 518.9 699.6 517.4 C 702.1 515.9 703.9 514.1 704.6 511.9 C 705.2 509.8 704.4 507.2 703.5 504.5 C 702.6 501.8 700.6 498.9 699.0 496.0 C 697.4 493.1 695.5 490.2 693.6 487.4 C 691.8 484.6 689.9 481.8 687.9 479.1 C 686.0 476.3 684.0 473.7 681.9 471.1 C 679.9 468.4 677.8 465.9 675.6 463.4 C 673.4 460.9 671.2 458.5 668.9 456.1 C 666.6 453.8 664.1 451.5 661.7 449.3 C 659.2 447.1 656.7 444.9 654.2 442.8 C 651.6 440.7 649.0 438.6 646.4 436.6 C 643.7 434.6 641.0 432.7 638.2 430.8 C 635.4 428.9 632.6 427.1 629.7 425.3 C 626.8 423.5 623.9 421.8 620.9 420.1 C 617.9 418.5 614.8 416.9 611.6 415.4 C 608.5 413.9 605.2 412.4 601.9 411.1 C 598.7 409.7 595.3 408.3 591.9 407.1 C 588.5 405.8 585.1 404.5 581.6 403.4 C 578.0 402.3 574.3 401.3 570.6 400.4 C 566.8 399.6 562.9 398.8 558.9 398.1 C 554.9 397.4 550.8 396.9 546.6 396.4 C 542.4 395.9 538.2 395.4 533.6 395.1 C 529.1 394.8 524.3 394.5 519.4 394.4 C 514.6 394.3 509.4 394.3 504.6 394.5 Z M 639.5 564.1 C 636.2 564.4 632.4 565.2 629.1 566.3 C 625.8 567.4 622.5 568.9 619.7 570.7 C 616.8 572.5 614.2 574.6 612.0 577.0 C 609.8 579.4 607.8 582.3 606.5 585.4 C 605.2 588.4 604.2 592.2 604.0 595.4 C 603.8 598.5 604.2 602.1 605.2 604.1 C 606.2 606.2 608.1 607.5 610.0 607.6 C 611.9 607.8 614.4 606.4 616.8 605.0 C 619.1 603.6 621.6 601.1 624.0 599.0 C 626.4 596.9 628.9 594.5 631.4 592.4 C 633.9 590.2 636.5 588.1 639.0 586.0 C 641.5 583.9 644.3 581.8 646.6 579.6 C 648.9 577.5 651.5 575.2 652.8 573.2 C 654.1 571.2 654.9 569.1 654.3 567.7 C 653.7 566.2 651.6 565.1 649.1 564.5 C 646.7 563.9 642.8 563.8 639.5 564.1 Z" fill="#EFEAE0" fill-rule="evenodd"/>
  <path d="M 340 829 C 414 789 494 741 580 674" fill="none" stroke="#EFEAE0" stroke-width="18" stroke-linecap="round"/>
</svg>
