<svg xmlns="http://www.w3.org/2000/svg" viewBox="0 0 512 512" width="512" height="512">
  <rect width="512" height="512" fill="#1D4354"/>
  <g fill="none" stroke="#EFEAE0" stroke-linecap="round" stroke-linejoin="round">
    <path d="M278 198 C222 184 170 226 154 293 C137 366 158 441 218 459 C278 477 330 425 342 355 C354 286 333 212 278 198 Z" stroke-width="25"/>
    <path d="M239 360 C234 335 249 311 276 282 C309 247 348 213 362 179 C369 163 368 147 356 145" stroke-width="21"/>
    <path d="M319 250 C334 268 332 300 353 312 C371 322 396 314 407 294 C411 286 411 277 410 270" stroke-width="21"/>
  </g>
</svg>
