<svg xmlns="http://www.w3.org/2000/svg" viewBox="0 0 1254 1254" width="512" height="512"><rect width="1254" height="1254" fill="#1D4354"/><g transform="translate(252.702,213.180) scale(0.581208)"><g transform="translate(0,1424) scale(0.1,-0.1)" fill="#F3E8D8"><path d="M6075 13974 c-110 -7 -267 -22 -350 -33 -82 -11 -177 -23 -210 -26
-33 -4 -85 -13 -116 -21 -31 -8 -69 -14 -84 -14 -14 0 -65 -9 -113 -19 -48
-11 -112 -25 -142 -31 -206 -45 -398 -95 -555 -144 -96 -30 -290 -97 -322
-111 -17 -8 -36 -15 -42 -15 -6 0 -30 -9 -53 -19 -24 -10 -68 -29 -98 -41 -30
-12 -66 -28 -80 -35 -14 -7 -77 -35 -140 -63 -165 -73 -363 -176 -535 -278
-22 -13 -57 -34 -79 -46 -67 -40 -165 -105 -261 -173 -27 -20 -66 -47 -85 -61
-112 -78 -243 -179 -301 -234 -9 -8 -58 -51 -110 -95 -331 -282 -696 -709
-1003 -1175 -158 -241 -405 -703 -501 -940 -15 -36 -30 -74 -35 -85 -5 -11
-21 -49 -35 -85 -15 -36 -35 -84 -46 -108 -10 -23 -19 -47 -19 -53 0 -6 -7
-25 -15 -42 -14 -32 -84 -233 -109 -317 -8 -25 -24 -76 -35 -115 -29 -94 -58
-197 -75 -270 -8 -33 -26 -105 -41 -160 -69 -266 -138 -661 -185 -1055 -76
-649 -64 -1550 31 -2210 6 -41 17 -120 24 -175 8 -55 21 -127 29 -160 9 -32
16 -71 16 -85 0 -14 7 -53 16 -85 8 -33 21 -91 29 -130 17 -85 45 -203 75
-310 12 -44 28 -102 35 -130 7 -27 20 -72 29 -100 8 -27 34 -111 57 -185 22
-74 49 -158 60 -185 10 -28 19 -54 19 -57 0 -10 114 -305 140 -363 10 -21 22
-52 77 -185 45 -110 225 -455 338 -648 86 -147 211 -339 269 -414 12 -15 39
-53 61 -84 140 -197 408 -506 593 -684 95 -91 249 -229 307 -276 33 -26 81
-66 106 -88 99 -86 536 -393 624 -437 11 -5 43 -23 70 -40 28 -16 64 -36 80
-45 17 -8 50 -26 75 -41 74 -42 349 -178 430 -212 41 -18 82 -36 91 -41 37
-20 352 -140 469 -179 291 -95 637 -190 760 -207 25 -3 59 -10 75 -15 70 -20
443 -72 675 -94 345 -32 934 -29 1215 6 44 5 135 16 203 24 68 7 146 18 175
24 29 6 126 24 217 41 250 46 329 66 645 160 82 24 276 94 320 115 17 8 68 30
115 48 144 57 469 214 552 265 46 29 50 32 143 87 89 53 184 114 262 167 137
95 152 105 169 122 9 10 42 36 73 59 222 161 568 484 820 762 83 92 354 431
415 520 91 132 252 380 280 430 9 17 26 46 38 65 86 141 240 435 328 625 57
124 134 304 168 395 12 30 33 85 47 122 45 119 133 388 179 548 104 365 168
670 246 1180 22 137 51 476 65 745 23 449 -5 1160 -60 1565 -45 325 -124 762
-160 880 -7 25 -25 97 -40 160 -15 63 -38 153 -52 200 -14 47 -34 113 -44 147
-40 140 -125 382 -181 518 -11 28 -30 73 -41 100 -36 88 -67 159 -82 187 -8
14 -15 31 -15 37 0 12 -159 338 -213 436 -28 51 -159 274 -192 326 -5 9 -18
31 -29 50 -35 62 -144 219 -242 347 -95 124 -252 322 -263 332 -4 3 -45 50
-93 105 -82 95 -210 223 -364 365 -38 36 -92 86 -120 111 -89 82 -370 304
-436 344 -9 5 -37 25 -63 43 -25 17 -48 32 -50 32 -2 0 -25 15 -51 33 -25 17
-61 41 -80 52 -18 11 -66 40 -106 65 -40 25 -84 51 -98 57 -14 7 -45 25 -70
39 -25 14 -101 54 -170 89 -114 58 -167 83 -285 135 -22 9 -56 25 -77 34 -20
9 -42 16 -50 16 -7 0 -22 6 -33 14 -11 7 -36 19 -55 24 -19 6 -73 25 -120 42
-47 17 -105 37 -130 45 -164 51 -219 67 -250 75 -19 4 -75 18 -125 30 -49 12
-113 28 -141 36 -28 8 -59 14 -68 14 -10 0 -56 9 -104 19 -490 110 -1202 155
-1807 115z m655 -534 c91 -6 185 -15 210 -21 25 -5 83 -16 130 -24 47 -7 123
-23 170 -34 47 -11 112 -26 145 -34 33 -8 85 -22 115 -32 127 -42 207 -70 230
-82 14 -7 31 -13 38 -13 8 0 26 -6 40 -14 15 -8 54 -26 87 -41 56 -26 69 -32
113 -54 9 -5 39 -20 67 -32 40 -19 233 -126 313 -174 123 -74 397 -283 537
-411 263 -240 567 -600 757 -897 221 -346 465 -860 610 -1287 161 -472 263
-894 349 -1430 130 -821 153 -1931 58 -2800 -30 -275 -68 -575 -84 -660 -100
-540 -115 -606 -234 -1056 -61 -229 -235 -737 -281 -822 -5 -10 -32 -71 -61
-137 -111 -260 -268 -555 -444 -833 -53 -83 -254 -352 -355 -474 -118 -143
-317 -339 -460 -454 -155 -124 -315 -246 -355 -268 -16 -9 -61 -37 -100 -61
-158 -100 -484 -263 -600 -300 -22 -7 -78 -27 -125 -43 -382 -133 -770 -197
-1150 -189 -195 4 -454 32 -624 67 -184 39 -469 122 -535 156 -14 8 -32 14
-39 14 -8 0 -26 6 -40 14 -15 8 -97 48 -182 90 -163 80 -302 156 -395 216 -16
11 -44 27 -61 37 -212 123 -610 474 -858 756 -81 92 -258 319 -318 407 -212
310 -433 701 -559 990 -28 63 -54 124 -59 135 -39 88 -132 342 -199 542 -55
165 -89 281 -164 550 -45 162 -121 542 -156 783 -12 80 -26 173 -32 208 -23
149 -58 481 -69 657 -6 105 -16 213 -21 240 -16 80 -12 1013 6 1298 8 133 20
280 25 327 5 47 17 157 25 245 8 88 22 201 30 250 8 50 26 164 40 255 55 341
70 416 150 735 225 903 565 1649 1005 2208 167 212 372 430 528 559 48 40 92
77 98 83 17 15 71 57 154 118 41 31 87 65 102 76 14 12 30 21 36 21 5 0 17 9
27 20 10 11 24 20 30 20 7 0 18 7 25 15 7 8 25 21 41 30 30 16 57 31 124 71
69 40 331 166 455 219 112 46 123 51 210 78 206 63 183 57 420 112 310 71 688
98 1060 75z"/></g></g></svg>