<svg xmlns="http://www.w3.org/2000/svg" viewBox="0 0 512 512" width="512" height="512"><rect width="512" height="512" fill="#1D4354"/><path d="M 375.07 117.61 C 389.59 129.73 384.89 153.65 379.08 167.91 C 378.40 184.18 367.65 202.10 354.72 218.35 C 354.07 219.19 353.43 220.04 352.75 220.90 C 351.99 221.74 351.22 222.58 350.43 223.45 C 348.41 227.96 350.82 230.17 353.43 234.00 C 357.40 240.25 360.28 246.24 362.65 253.25 C 368.92 271.08 387.14 285.00 405.68 288.85 C 407.90 289.18 409.89 289.30 412.15 289.30 C 412.15 288.71 412.15 288.11 412.15 287.50 C 411.61 287.31 411.07 287.13 410.52 286.94 C 404.79 283.34 405.44 274.57 405.51 268.60 C 405.50 267.75 405.49 266.90 405.48 266.02 C 405.51 259.45 406.09 252.77 411.65 248.40 C 412.16 247.98 412.68 247.56 413.21 247.12 C 417.76 244.29 423.43 244.97 428.58 244.92 C 429.48 244.89 430.39 244.87 431.34 244.84 C 439.19 244.78 445.59 246.26 449.95 253.30 C 452.30 259.29 452.08 265.00 452.09 271.35 C 452.11 272.48 452.13 273.60 452.15 274.76 C 452.21 291.64 445.72 306.30 431.33 315.62 C 420.43 321.79 408.92 322.78 396.68 322.77 C 395.69 322.77 394.69 322.77 393.66 322.77 C 377.16 322.65 377.16 322.65 371.65 319.90 C 371.67 320.57 371.70 321.24 371.71 321.93 C 372.43 365.59 360.49 413.94 332.95 448.60 C 332.56 449.09 332.18 449.57 331.78 450.08 C 310.86 476.17 282.39 490.09 248.90 489.64 C 246.37 489.60 243.85 489.62 241.33 489.64 C 215.82 489.61 194.91 481.67 176.35 463.90 C 175.73 463.34 175.12 462.77 174.48 462.20 C 147.23 436.61 140.39 394.92 139.45 359.50 C 139.43 358.75 139.41 358.02 139.39 357.24 C 138.59 324.72 144.39 292.80 160.15 264.10 C 160.73 263.01 161.31 261.92 161.89 260.83 C 167.94 249.65 175.72 240.01 184.45 230.80 C 185.21 230.00 185.96 229.19 186.75 228.36 C 215.97 198.17 261.83 183.17 303.16 193.42 C 309.53 195.08 315.16 196.91 320.66 200.58 C 322.92 202.05 324.92 203.12 327.55 203.80 C 330.78 201.94 332.15 199.07 333.79 195.80 C 334.86 193.68 336.02 191.64 337.20 189.58 C 346.01 173.81 356.55 161.09 348.97 150.52 C 347.09 148.48 345.10 147.09 342.45 145.66 C 335.27 141.75 335.03 136.52 335.02 130.37 C 335.00 129.79 334.98 129.21 334.97 128.61 C 334.95 123.95 335.80 119.08 340.92 115.96 C 341.37 115.67 341.82 115.38 342.28 115.08 C 351.41 110.97 367.48 112.14 375.07 117.61 Z M 192.28 288.49 C 176.73 332.10 175.68 387.18 206.36 424.88 C 209.12 428.12 212.04 431.19 215.05 434.20 C 215.64 434.80 216.23 435.40 216.83 436.02 C 230.54 448.99 249.98 455.43 268.15 450.40 C 276.08 447.83 282.40 443.93 288.85 438.70 C 289.61 438.10 290.37 437.50 291.15 436.88 C 328.76 405.31 336.85 335.79 329.17 290.97 C 327.02 279.43 324.04 268.21 318.55 257.80 C 313.95 261.64 309.69 265.68 305.50 269.95 C 301.74 273.79 297.93 277.46 293.81 280.92 C 292.17 282.34 290.75 283.87 289.35 285.53 C 287.76 287.42 286.17 289.28 284.47 291.09 C 276.05 300.08 265.42 313.65 263.65 326.20 C 265.81 330.61 268.48 332.56 272.57 334.96 C 274.45 336.10 276.16 337.31 277.88 338.69 C 278.12 338.88 278.12 338.88 279.36 339.86 C 284.39 345.79 283.86 352.49 283.79 359.90 C 283.80 360.97 283.81 362.04 283.82 363.14 C 283.79 370.15 283.76 377.55 277.83 382.34 C 277.34 382.76 276.85 383.17 276.35 383.59 C 270.53 386.99 264.41 386.81 257.85 386.78 C 256.95 386.80 256.06 386.81 255.14 386.82 C 249.50 386.83 245.40 386.10 240.25 383.80 C 239.40 383.52 238.54 383.24 237.66 382.95 C 235.23 381.74 234.96 380.90 233.95 378.40 C 233.65 377.92 233.65 377.92 232.15 375.53 C 227.84 367.92 228.24 359.34 228.27 350.84 C 228.27 350.24 228.27 349.64 228.27 349.02 C 228.45 318.23 243.35 293.58 264.18 271.75 C 265.52 270.32 266.85 268.87 268.15 267.42 C 272.06 263.09 275.96 258.84 280.35 254.99 C 281.48 253.99 282.60 252.99 283.71 251.99 C 284.94 250.89 286.16 249.79 287.39 248.69 C 289.86 246.47 292.28 244.21 294.70 241.94 C 295.53 241.20 296.35 240.48 297.20 239.72 C 299.29 237.72 301.01 236.06 302.35 233.50 C 301.45 230.49 299.41 229.03 296.95 227.20 C 296.07 226.52 295.19 225.84 294.28 225.14 C 249.03 197.40 206.76 249.48 192.28 288.49 Z" fill="#EFEAE0"/></svg>
