<svg xmlns="http://www.w3.org/2000/svg" viewBox="0 0 512 512" width="512" height="512"><rect width="512" height="512" fill="#1D4354"/><g transform="translate(251.5 256) scale(0.92) rotate(-11) translate(-256 -256)"><path d="M0 0 C20.161 22.456 13.639 66.756 5.565 93.143 C-1.751 115.147 -13.691 135.057 -28.059 153.117 C-28.782 154.052 -29.505 154.986 -30.25 155.949 C-31.102 156.882 -31.954 157.816 -32.832 158.777 C-35.071 163.785 -32.401 166.253 -29.5 170.512 C-25.085 177.445 -21.879 184.106 -19.25 191.887 C-12.277 211.707 7.959 227.172 28.562 231.449 C31.03 231.823 33.243 231.949 35.75 231.949 C35.75 231.289 35.75 230.629 35.75 229.949 C35.152 229.743 34.554 229.537 33.938 229.324 C27.573 225.324 28.294 215.575 28.375 208.949 C28.363 208.003 28.352 207.057 28.34 206.082 C28.37 198.783 29.025 191.357 35.188 186.512 C35.764 186.039 36.34 185.566 36.934 185.078 C41.977 181.943 48.279 182.691 54 182.637 C55.012 182.608 56.024 182.579 57.066 182.549 C65.788 182.475 72.909 184.129 77.75 191.949 C80.358 198.609 80.118 204.947 80.125 212.012 C80.149 213.259 80.174 214.506 80.199 215.791 C80.258 234.547 73.045 250.838 57.062 261.199 C44.952 268.047 32.159 269.146 18.562 269.137 C17.456 269.137 16.35 269.137 15.211 269.136 C-3.132 269.008 -3.132 269.008 -9.25 265.949 C-9.227 266.693 -9.204 267.437 -9.18 268.203 C-8.378 316.721 -21.651 370.439 -52.25 408.949 C-52.68 409.491 -53.11 410.034 -53.553 410.592 C-76.79 439.584 -108.433 455.051 -145.644 454.546 C-148.448 454.512 -151.249 454.526 -154.053 454.545 C-182.39 454.524 -205.634 445.69 -226.25 425.949 C-226.937 425.325 -227.624 424.701 -228.332 424.059 C-258.61 395.632 -266.21 349.298 -267.25 309.949 C-267.273 309.122 -267.297 308.295 -267.321 307.443 C-268.213 271.294 -261.756 235.84 -244.25 203.949 C-243.607 202.738 -242.963 201.527 -242.32 200.316 C-235.599 187.895 -226.946 177.182 -217.25 166.949 C-216.408 166.055 -215.566 165.16 -214.699 164.238 C-182.233 130.691 -131.274 114.028 -85.345 125.422 C-78.272 127.264 -72.017 129.288 -65.912 133.365 C-63.393 135.008 -61.168 136.189 -58.25 136.949 C-54.664 134.882 -53.144 131.686 -51.32 128.057 C-50.128 125.71 -48.836 123.435 -47.531 121.148 C-37.74 103.633 -25.728 80.51 -36.25 60.949 C-38.867 57.169 -41.623 54.605 -45.312 51.949 C-55.28 44.722 -55.612 35.008 -55.625 23.637 C-55.649 22.56 -55.674 21.483 -55.699 20.373 C-55.731 11.756 -54.534 2.731 -47.438 -3.051 C-46.812 -3.587 -46.187 -4.123 -45.543 -4.676 C-32.865 -12.278 -10.535 -10.132 0 0 Z M-208.552 231.052 C-225.828 279.507 -227.002 340.7 -192.908 382.598 C-189.839 386.204 -186.595 389.599 -183.25 392.949 C-182.595 393.616 -181.94 394.282 -181.266 394.969 C-166.039 409.382 -144.443 416.541 -124.25 410.949 C-115.445 408.09 -108.418 403.755 -101.25 397.949 C-100.406 397.281 -99.561 396.614 -98.691 395.926 C-56.896 360.846 -47.918 283.605 -56.455 233.803 C-58.844 220.982 -62.151 208.516 -68.25 196.949 C-73.358 201.215 -78.094 205.698 -82.75 210.449 C-86.934 214.72 -91.164 218.792 -95.741 222.64 C-97.562 224.22 -99.139 225.915 -100.688 227.762 C-102.463 229.86 -104.233 231.932 -106.117 233.934 C-115.472 243.927 -127.275 259.005 -129.25 272.949 C-126.85 277.854 -123.883 280.016 -119.344 282.676 C-117.253 283.947 -115.347 285.295 -113.438 286.824 C-113.166 287.039 -113.166 287.039 -111.793 288.129 C-106.203 294.723 -106.795 302.16 -106.875 310.387 C-106.863 311.576 -106.852 312.765 -106.84 313.99 C-106.866 321.777 -106.914 330 -113.5 335.324 C-114.041 335.786 -114.583 336.247 -115.141 336.723 C-121.61 340.485 -128.408 340.285 -135.688 340.262 C-136.686 340.278 -137.684 340.294 -138.713 340.311 C-144.97 340.315 -149.534 339.494 -155.25 336.949 C-156.199 336.64 -157.148 336.33 -158.125 336.012 C-160.828 334.66 -161.125 333.725 -162.25 330.949 C-162.58 330.423 -162.58 330.423 -164.25 327.762 C-169.038 319.298 -168.604 309.768 -168.562 300.324 C-168.56 299.655 -168.558 298.986 -168.555 298.296 C-168.358 264.085 -151.797 236.707 -128.661 212.445 C-127.167 210.861 -125.704 209.253 -124.246 207.637 C-119.896 202.826 -115.571 198.105 -110.688 193.824 C-109.445 192.716 -108.202 191.607 -106.964 190.492 C-105.603 189.267 -104.236 188.046 -102.868 186.828 C-100.128 184.361 -97.438 181.847 -94.75 179.324 C-93.833 178.512 -92.916 177.7 -91.97 176.863 C-89.646 174.642 -87.741 172.801 -86.25 169.949 C-87.251 166.614 -89.522 164.974 -92.25 162.949 C-93.231 162.193 -94.212 161.436 -95.223 160.656 C-145.485 129.838 -192.461 187.71 -208.552 231.052 Z " fill="#EFEAE0" transform="translate(349.25,32.05078125)"/></g></svg>
